<svg width="61" height="67" viewBox="0 0 61 67" fill="none" xmlns="http://www.w3.org/2000/svg">
<path d="M53.5833 60V23.3333H6.91667V60H53.5833ZM43.5833 0H50.25V6.66667H53.5833C55.3514 6.66667 57.0471 7.36905 58.2974 8.61929C59.5476 9.86953 60.25 11.5652 60.25 13.3333V60C60.25 63.7 57.2833 66.6667 53.5833 66.6667H6.91667C5.14856 66.6667 3.45286 65.9643 2.20262 64.7141C0.952379 63.4638 0.25 61.7681 0.25 60V13.3333C0.25 9.63333 3.21667 6.66667 6.91667 6.66667H10.25V0H16.9167V6.66667H43.5833V0ZM26.9167 28.3333H33.5833V38.3333H43.5833V45H33.5833V55H26.9167V45H16.9167V38.3333H26.9167V28.3333Z" fill="#012E40"/>
</svg>
