<svg width="705" height="584" viewBox="0 0 705 584" fill="none" xmlns="http://www.w3.org/2000/svg">
<g clip-path="url(#clip0_1_390)">
<path opacity="0.1" d="M470.617 583.672C436.284 583.672 408.451 578.444 408.451 571.995C408.451 565.547 436.284 560.319 470.617 560.319C504.95 560.319 532.782 565.547 532.782 571.995C532.782 578.444 504.95 583.672 470.617 583.672Z" fill="#048ABF"/>
<path opacity="0.1" d="M132.695 584C89.8526 584 55.1221 578.772 55.1221 572.324C55.1221 565.875 89.8526 560.647 132.695 560.647C175.537 560.647 210.267 565.875 210.267 572.324C210.267 578.772 175.537 584 132.695 584Z" fill="#048ABF"/>
<path opacity="0.1" d="M696.17 252.33H631.421V355.538H691.43C691.59 356.597 691.743 357.664 691.909 358.731H631.421V441.965C631.53 441.928 631.625 441.883 631.727 441.839C633.437 441.048 635.134 440.212 636.831 439.317L637.916 438.742C639.617 437.802 641.318 436.807 643.02 435.758C643.613 435.392 644.206 435.012 644.793 434.624C654.238 428.437 662.818 420.597 670.236 411.375C670.453 411.129 670.657 410.868 670.874 410.629C671.908 409.316 672.922 407.988 673.905 406.63L674.989 405.138C676.15 403.474 677.273 401.766 678.364 400.035C678.524 399.781 678.677 399.527 678.843 399.289C683.279 392.094 686.964 384.304 689.816 376.085C689.905 375.839 689.982 375.57 690.065 375.339C690.941 372.703 691.717 370.042 692.393 367.356C692.687 366.229 692.968 365.117 693.21 363.946C693.299 363.603 693.376 363.267 693.446 362.931C697.07 346.39 697.497 329.208 697.497 312.145C697.497 310.152 697.497 308.153 697.497 306.176C697.497 299.274 697.427 292.328 697.325 285.39C697.325 283.591 697.261 281.801 697.229 279.995C697.14 275.414 697.012 270.833 696.847 266.252C696.808 264.976 696.757 263.708 696.7 262.44C696.7 261.708 696.668 260.977 696.604 260.246C696.451 257.59 696.323 254.956 696.17 252.33Z" fill="#048ABF"/>
<path opacity="0.1" d="M631.421 137.416H666.938C661.164 126.848 654.856 116.693 648.047 107.005C642.771 99.4248 637.201 92.0384 631.421 84.9207V137.416Z" fill="#048ABF"/>
<path opacity="0.1" d="M631.421 140.609V249.137H695.966C695.966 248.823 695.921 248.502 695.902 248.189C695.845 247.331 695.787 246.473 695.724 245.623C695.654 244.623 695.577 243.616 695.494 242.638C695.411 241.661 695.322 240.467 695.226 239.385C695.13 238.303 695.041 237.207 694.933 236.125C694.824 235.043 694.728 233.961 694.614 232.887C694.499 231.812 694.397 230.723 694.275 229.649C694.18 228.753 694.078 227.865 693.976 226.97C693.829 225.709 693.676 224.441 693.51 223.187C693.51 223.001 693.465 222.807 693.44 222.628C692.275 213.452 690.689 204.356 688.687 195.38C686.591 185.965 683.915 176.739 680.68 167.775C677.241 158.398 673.215 149.33 668.635 140.647L631.421 140.609Z" fill="#048ABF"/>
<path opacity="0.1" d="M615.963 252.322V355.537H477.666V252.322H615.963ZM615.963 358.723V447.36C615.172 447.554 614.387 447.74 613.609 447.897C612.549 448.136 611.497 448.352 610.419 448.538C610.214 448.576 610.004 448.613 609.781 448.635C609.36 448.718 608.926 448.785 608.505 448.852C607.439 449.023 606.38 449.165 605.315 449.277C604.811 449.337 604.3 449.389 603.79 449.434L602.559 449.546C601.889 449.605 601.225 449.65 600.568 449.673C600.16 449.673 599.751 449.717 599.33 449.732C599.011 449.732 598.692 449.732 598.361 449.732C598.029 449.732 597.557 449.732 597.155 449.732C596.606 449.732 596.058 449.732 595.515 449.732H594.782C594.233 449.732 593.684 449.732 593.142 449.673H593.104C592.727 449.673 592.344 449.673 591.962 449.613C591.855 449.62 591.749 449.62 591.643 449.613C591.324 449.613 591.005 449.613 590.698 449.561H590.475L588.338 449.367C587.636 449.292 586.928 449.195 586.213 449.105L584.759 448.904C578.841 447.934 572.989 446.478 567.246 444.547C554.346 440.339 541.727 434.452 528.833 430.14C512.162 424.581 493.744 421.851 477.635 428.648V358.723H615.963ZM477.666 137.416V0.00731874C492.808 -0.18452 507.908 1.8865 522.6 6.17008C557.619 16.4588 589.04 38.7745 615.963 67.2754V137.409H609.021V140.594H615.963V249.137H477.666V140.602H580.523V137.416H477.666ZM300.032 91.0013C308.696 90.6432 317.309 87.435 325.099 82.4809C339.995 73.0054 351.894 58.3745 365.19 46.0266C392.814 20.3086 427.074 4.7898 462.221 0.93994V137.416H264.796L264.305 136.812L300.032 91.0013ZM282.047 87.2708L262.978 111.743V80.8544C269.364 81.7796 274.959 83.9805 282.022 87.241L282.047 87.2708ZM262.978 469.369V358.723H303.611C303.72 358.253 303.828 357.776 303.956 357.298C303.834 357.776 303.732 358.253 303.618 358.723H462.195V438.742C460.69 440.048 459.203 441.421 457.729 442.816C456.141 444.308 454.571 445.882 452.996 447.427L451.407 448.964C450.648 449.71 449.882 450.456 449.11 451.157C447.579 452.61 446.033 454.042 444.472 455.455C443.7 456.201 442.909 456.872 442.124 457.574C429.666 468.713 416.524 478.765 402.805 487.649C399.73 489.638 396.627 491.581 393.497 493.476C391.411 494.722 389.312 495.96 387.206 497.162C384.042 498.967 380.852 500.708 377.637 502.384C347.992 517.947 316.645 528.626 284.491 534.116C277.35 535.349 270.181 536.319 262.984 537.026V469.362H262.346L262.978 469.369ZM462.195 140.602V249.137H262.952V140.602H462.195ZM462.195 252.322V355.537H262.952V252.322H462.195ZM247.488 80.7201V115.175L223.148 83.9432C231.213 82.4212 239.326 81.3344 247.488 80.6828V80.7201ZM247.488 252.36V355.537H53.6993V252.322L247.488 252.36ZM54.4075 477.562L53.7249 358.723H247.488V538.212C235.005 538.825 222.504 538.651 210.038 537.69H209.821C203.866 537.252 197.939 536.615 192.04 535.78H191.906C160.434 531.496 129.66 521.893 100.547 507.271M16.3325 269.319C17.0598 267.311 17.819 265.319 18.5909 263.35C20.0328 259.619 21.5576 255.993 23.127 252.367H38.2473V355.537H0.019165C0.0383301 326.32 6.36078 296.476 16.3134 269.281L16.3325 269.319ZM38.2473 358.761V460.976C27.4781 448.904 18.3804 435.094 11.8283 419.306C3.94916 400.296 0.344543 379.711 0.0510864 358.746L38.2473 358.761ZM38.2473 222.285V249.144H24.5433C28.689 239.898 33.2573 230.919 38.2281 222.247L38.2473 222.285ZM169.672 100.969C170.68 100.522 171.688 100.066 172.703 99.6262C183.401 95.0058 194.334 91.1636 205.438 88.1214L242.684 135.924L243.398 136.812L242.92 137.423H110.359C128.821 122.562 148.725 110.312 169.653 100.932L169.672 100.969ZM106.473 140.639H244.77L247.488 143.549V249.137H223.665H223.627H53.6738V197.992C69.0478 176.247 86.7925 156.953 106.454 140.602L106.473 140.639Z" fill="#048ABF"/>
<path opacity="0.1" d="M631.421 195.351V249.137H695.966C695.966 248.823 695.921 248.503 695.902 248.189C695.845 247.331 695.787 246.473 695.724 245.623C695.654 244.623 695.577 243.616 695.494 242.638C695.411 241.661 695.322 240.467 695.226 239.385C695.13 238.303 695.041 237.207 694.933 236.125C694.824 235.043 694.728 233.961 694.614 232.887C694.499 231.812 694.397 230.723 694.275 229.649C694.18 228.753 694.078 227.865 693.976 226.97C693.829 225.709 693.676 224.441 693.51 223.187C693.51 223.001 693.465 222.807 693.44 222.628C692.275 213.452 690.689 204.356 688.687 195.38L631.421 195.351Z" fill="#048ABF"/>
<path opacity="0.1" d="M696.17 252.33H631.421V355.538H691.43C691.59 356.597 691.743 357.664 691.909 358.731H631.421V441.965C631.53 441.928 631.625 441.883 631.727 441.839C633.437 441.048 635.134 440.212 636.831 439.317L637.916 438.742C639.617 437.802 641.318 436.807 643.02 435.758C643.613 435.392 644.206 435.012 644.793 434.624C654.238 428.437 662.818 420.597 670.236 411.375C670.453 411.129 670.657 410.868 670.874 410.629C671.908 409.316 672.922 407.988 673.905 406.63L674.989 405.138C676.15 403.474 677.273 401.766 678.364 400.035C678.524 399.781 678.677 399.527 678.843 399.289C683.279 392.094 686.964 384.304 689.816 376.085C689.905 375.839 689.982 375.57 690.065 375.339C690.941 372.703 691.717 370.042 692.393 367.356C692.687 366.229 692.968 365.117 693.21 363.946C693.299 363.603 693.376 363.267 693.446 362.931C697.07 346.39 697.497 329.208 697.497 312.145C697.497 310.152 697.497 308.153 697.497 306.176C697.497 299.274 697.427 292.328 697.325 285.39C697.325 283.591 697.261 281.801 697.229 279.995C697.14 275.414 697.012 270.833 696.847 266.252C696.808 264.976 696.757 263.708 696.7 262.44C696.7 261.708 696.668 260.977 696.604 260.246C696.451 257.59 696.323 254.956 696.17 252.33Z" fill="#048ABF"/>
<path opacity="0.1" d="M567.278 156.143V249.137H615.963V156.143H609.021V124.658H580.529V156.143H567.278Z" fill="#048ABF"/>
<path opacity="0.1" d="M567.278 252.323H615.956V355.53H567.278V252.323Z" fill="#048ABF"/>
<path opacity="0.1" d="M615.963 358.731H567.278V444.532C573.021 446.462 578.873 447.915 584.791 448.882L586.245 449.091C586.96 449.188 587.668 449.27 588.37 449.352C589.072 449.434 589.799 449.494 590.507 449.546H590.73C591.037 449.546 591.368 449.591 591.668 449.598H591.994C592.376 449.598 592.759 449.643 593.142 449.658C593.684 449.695 594.227 449.703 594.782 449.71C595.018 449.71 595.241 449.71 595.477 449.71C596.026 449.71 596.568 449.71 597.117 449.71H598.322C598.648 449.71 598.96 449.71 599.299 449.71L600.53 449.658C601.168 449.658 601.857 449.576 602.52 449.524L603.745 449.419L605.27 449.255C606.342 449.143 607.407 449.001 608.46 448.83L609.736 448.621L610.374 448.516C611.439 448.322 612.492 448.113 613.564 447.875C614.349 447.718 615.127 447.524 615.918 447.337L615.963 358.731Z" fill="#048ABF"/>
<path opacity="0.1" d="M262.952 145.161H303.094V249.129H262.952V145.161Z" fill="#048ABF"/>
<path opacity="0.1" d="M262.946 252.323V355.538H462.195V311.018H356.066V337.281H303.094V252.323H262.946Z" fill="#048ABF"/>
<path opacity="0.1" d="M262.314 469.392H262.952V537.1C270.14 536.389 277.307 535.422 284.452 534.198C316.622 528.69 347.983 517.989 377.637 502.399C386.198 497.893 394.586 492.974 402.799 487.642C416.518 478.753 429.662 468.701 442.124 457.566C445.255 454.761 448.345 451.891 451.394 448.956C453.506 446.92 455.605 444.831 457.729 442.801C459.203 441.406 460.69 440.033 462.195 438.72V358.731H303.624C303.732 358.253 303.841 357.776 303.956 357.306C303.834 357.776 303.72 358.253 303.611 358.731H262.952V469.347C262.735 469.355 262.525 469.377 262.314 469.392Z" fill="#048ABF"/>
<path opacity="0.1" d="M158.259 137.416H184.416V127.911H172.69V99.5964C171.674 100.029 170.661 100.474 169.653 100.932V127.911H158.259V137.416Z" fill="#048ABF"/>
<path opacity="0.1" d="M95.2386 249.137H223.652C223.652 249.137 223.652 249.137 223.608 249.174L223.665 249.137H247.488V145.168H240.738V222.016H209.891V176.504H184.41V140.609H158.252V176.534H132.771V222.046H95.2386V249.137Z" fill="#048ABF"/>
<path opacity="0.1" d="M247.488 252.323V355.538H95.2386V252.323H247.488ZM53.9098 477.032L53.6993 395.334H95.2386V358.776H247.488V538.212C235.005 538.825 222.504 538.651 210.038 537.69H209.821C203.866 537.252 197.939 536.615 192.04 535.78H191.906C160.434 531.496 129.66 521.893 100.547 507.271" fill="#048ABF"/>
<path opacity="0.1" d="M35.5422 358.731H0.0254669C0.338081 379.689 3.9363 400.274 11.809 419.284C18.3612 435.079 27.4652 448.889 38.2217 460.954V395.297H35.5422V358.731Z" fill="#048ABF"/>
<path opacity="0.1" d="M0.00637436 355.538H35.5422V269.281H16.3133C6.36075 296.476 0.0382767 326.32 0.00637436 355.538Z" fill="#048ABF"/>
<path opacity="0.1" d="M262.946 174.064H284.452V206.661H262.946V174.064Z" fill="#048ABF"/>
<path opacity="0.1" d="M262.946 241.631H284.452V249.137H262.946V241.631Z" fill="#048ABF"/>
<path opacity="0.1" d="M262.946 252.323H284.452V274.22H262.946V252.323Z" fill="#048ABF"/>
<path opacity="0.1" d="M262.946 309.198H284.452V341.794H262.946V309.198Z" fill="#048ABF"/>
<path opacity="0.1" d="M262.946 376.764H284.452V409.361H262.946V376.764Z" fill="#048ABF"/>
<path opacity="0.1" d="M262.952 469.347C262.735 469.347 262.525 469.347 262.314 469.392H262.952V476.965H284.452V444.331H262.952V469.347Z" fill="#048ABF"/>
<path opacity="0.1" d="M262.952 511.882V537.063C270.14 536.352 277.307 535.384 284.452 534.161V511.882H262.952Z" fill="#048ABF"/>
<path opacity="0.1" d="M370.025 353.143H462.195V355.538H370.025V353.143Z" fill="#048ABF"/>
<path opacity="0.1" d="M370.025 358.723H462.195V367.9H370.025V358.723Z" fill="#048ABF"/>
<path opacity="0.1" d="M370.025 397.983H462.195V412.741H370.025V397.983Z" fill="#048ABF"/>
<path opacity="0.1" d="M370.032 442.823V457.581H442.124C445.255 454.786 448.347 451.916 451.401 448.971C453.512 446.934 455.605 444.845 457.736 442.823H370.032Z" fill="#048ABF"/>
<path opacity="0.1" d="M370.032 487.656V502.399H377.643C386.196 497.888 394.582 492.966 402.799 487.634L370.032 487.656Z" fill="#048ABF"/>
<path opacity="0.1" d="M191.887 262.328H210.031V283.547H191.887V262.328Z" fill="#048ABF"/>
<path opacity="0.1" d="M584.746 163.462H602.89V184.681H584.746V163.462Z" fill="#048ABF"/>
<path opacity="0.1" d="M584.746 212.75H602.89V233.969H584.746V212.75Z" fill="#048ABF"/>
<path opacity="0.1" d="M584.746 262.037H602.89V283.256H584.746V262.037Z" fill="#048ABF"/>
<path opacity="0.1" d="M584.746 311.316H602.89V332.535H584.746V311.316Z" fill="#048ABF"/>
<path opacity="0.1" d="M584.746 360.604H602.89V381.823H584.746V360.604Z" fill="#048ABF"/>
<path opacity="0.1" d="M584.746 409.891H602.89V431.11H584.746V409.891Z" fill="#048ABF"/>
<path opacity="0.1" d="M122.621 262.328H140.765V283.547H122.621V262.328Z" fill="#048ABF"/>
<path opacity="0.1" d="M191.887 314.667H210.031V335.886H191.887V314.667Z" fill="#048ABF"/>
<path opacity="0.1" d="M122.621 314.667H140.765V335.886H122.621V314.667Z" fill="#048ABF"/>
<path opacity="0.1" d="M191.887 366.998H210.031V388.217H191.887V366.998Z" fill="#048ABF"/>
<path opacity="0.1" d="M122.621 366.998H140.765V388.217H122.621V366.998Z" fill="#048ABF"/>
<path opacity="0.1" d="M191.887 419.336H210.031V440.555H191.887V419.336Z" fill="#048ABF"/>
<path opacity="0.1" d="M122.621 419.336H140.765V440.555H122.621V419.336Z" fill="#048ABF"/>
<path opacity="0.1" d="M191.887 471.675H210.031V492.894H191.887V471.675Z" fill="#048ABF"/>
<path opacity="0.1" d="M122.621 471.675H140.765V492.894H122.621V471.675Z" fill="#048ABF"/>
<path opacity="0.1" d="M210.031 537.69V524.006H191.893V535.742L210.031 537.69Z" fill="#048ABF"/>
<path opacity="0.1" d="M693.516 222.613V234.752H631.421V222.613H693.516ZM687.328 233.991H692.393V223.359H687.289L687.328 233.991ZM681.146 233.991H686.25V223.359H681.146V233.991ZM674.976 233.991H680.08V223.359H674.976V233.991ZM668.794 233.991H673.892V223.359H668.788L668.794 233.991ZM662.619 233.991H667.722V223.359H662.619V233.991ZM656.436 233.991H661.54V223.359H656.436V233.991ZM650.254 233.991H655.358V223.359H650.254V233.991ZM644.079 233.991H649.183V223.359H644.079V233.991ZM637.903 233.991H643.007V223.359H637.903V233.991ZM631.727 233.991H636.831V223.359H631.727V233.991Z" fill="#048ABF"/>
<path opacity="0.1" d="M693.516 257.933V270.072H631.421V257.933H693.516ZM687.328 269.304H692.393V258.702H687.289L687.328 269.304ZM681.146 269.304H686.25V258.702H681.146V269.304ZM674.976 269.304H680.08V258.702H674.976V269.304ZM668.794 269.304H673.892V258.702H668.788L668.794 269.304ZM662.619 269.304H667.722V258.702H662.619V269.304ZM656.436 269.304H661.54V258.702H656.436V269.304ZM650.254 269.304H655.358V258.702H650.254V269.304ZM644.079 269.304H649.183V258.702H644.079V269.304ZM637.903 269.304H643.007V258.702H637.903V269.304ZM631.727 269.304H636.831V258.702H631.727V269.304Z" fill="#048ABF"/>
<path opacity="0.1" d="M693.516 293.268V305.43H631.421V293.268H693.516ZM687.328 304.639H692.393V294.029H687.289L687.328 304.639ZM681.146 304.639H686.25V294.029H681.146V304.639ZM674.976 304.639H680.08V294.029H674.976V304.639ZM668.794 304.639H673.892V294.029H668.788L668.794 304.639ZM662.619 304.639H667.722V294.029H662.619V304.639ZM656.436 304.639H661.54V294.029H656.436V304.639ZM650.254 304.639H655.358V294.029H650.254V304.639ZM644.079 304.639H649.183V294.029H644.079V304.639ZM637.903 304.639H643.007V294.029H637.903V304.639ZM631.727 304.639H636.831V294.029H631.727V304.639Z" fill="#048ABF"/>
<path opacity="0.1" d="M693.516 328.604V340.728H631.421V328.604H693.516ZM687.328 339.974H692.393V329.357H687.289L687.328 339.974ZM681.146 339.974H686.25V329.357H681.146V339.974ZM674.976 339.974H680.08V329.357H674.976V339.974ZM668.794 339.974H673.892V329.357H668.788L668.794 339.974ZM662.619 339.974H667.722V329.357H662.619V339.974ZM656.436 339.974H661.54V329.357H656.436V339.974ZM650.254 339.974H655.358V329.357H650.254V339.974ZM644.079 339.974H649.183V329.357H644.079V339.974ZM637.903 339.974H643.007V329.357H637.903V339.974ZM631.727 339.974H636.831V329.357H631.727V339.974Z" fill="#048ABF"/>
<path opacity="0.1" d="M693.248 363.931C692.999 365.073 692.719 366.214 692.425 367.341V364.692H687.321V375.302H690.052C689.969 375.548 689.886 375.817 689.803 376.048H631.421V363.931H693.248ZM681.127 375.302H686.23V364.692H681.127V375.302ZM674.957 375.302H680.061V364.692H674.957V375.302ZM668.775 375.302H673.892V364.692H668.788L668.775 375.302ZM662.599 375.302H667.703V364.692H662.599V375.302ZM656.417 375.302H661.521V364.692H656.417V375.302ZM650.235 375.302H655.339V364.692H650.235V375.302ZM644.06 375.302H649.163V364.692H644.06V375.302ZM637.884 375.302H642.988V364.692H637.884V375.302ZM631.708 375.302H636.812V364.692H631.708V375.302Z" fill="#048ABF"/>
<path opacity="0.1" d="M678.83 399.266C678.67 399.505 678.517 399.774 678.351 400.012H674.976V405.108C674.613 405.616 674.255 406.123 673.885 406.6V399.983H668.782V410.629H670.849C670.644 410.876 670.447 411.137 670.211 411.375H631.402V399.266H678.83ZM662.619 410.629H667.723V400.027H662.619V410.629ZM656.437 410.629H661.54V400.027H656.437V410.629ZM650.254 410.629H655.358V400.027H650.254V410.629ZM644.079 410.629H649.183V400.027H644.079V410.629ZM637.903 410.629H643.007V400.027H637.903V410.629ZM631.727 410.629H636.831V400.027H631.727V410.629Z" fill="#048ABF"/>
<path opacity="0.1" d="M644.768 434.594C644.187 434.982 643.594 435.34 642.994 435.728V435.355H637.89V438.712L636.806 439.302V435.355H631.702V441.809C631.604 441.866 631.501 441.911 631.396 441.943V434.594H644.768Z" fill="#048ABF"/>
<path opacity="0.1" d="M303.956 357.298C303.834 357.776 303.732 358.253 303.618 358.724C303.72 358.253 303.828 357.776 303.956 357.298ZM608.996 137.394V140.58H580.497V137.394H608.996ZM303.956 357.298C303.834 357.776 303.732 358.253 303.618 358.724C303.72 358.253 303.828 357.776 303.956 357.298ZM303.956 357.298C303.834 357.776 303.732 358.253 303.618 358.724C303.72 358.253 303.828 357.776 303.956 357.298Z" fill="#048ABF"/>
<path d="M410.506 283.271C410.506 283.271 413.019 282.86 413.019 278.578C413.019 274.295 414.818 266.297 414.818 266.297C414.818 266.26 416.375 252.367 418.525 250.159C420.675 247.95 423.438 234.983 423.438 234.983C423.438 234.983 423.91 227.947 424.873 226.433C425.836 224.918 427.138 221.21 429.058 215.92C430.979 210.631 438.985 206.967 438.985 206.967C438.985 206.967 453.461 197.149 457.564 193.948C457.936 193.685 458.285 193.377 458.603 193.03C459.318 191.933 462.431 191.911 462.431 191.911C462.757 189.509 463.069 186.748 463.171 184.249C463.171 183.98 463.171 183.711 463.203 183.443C458.629 180.281 455.184 175.295 453.5 169.401C453.423 169.118 453.359 168.819 453.289 168.536C453.015 168.43 452.763 168.259 452.548 168.033C452.334 167.807 452.163 167.531 452.045 167.223C451.675 166.26 451.669 165.134 451.209 164.238C450.673 163.179 449.653 162.612 448.849 161.813C446.82 159.799 446.297 156.404 446.392 153.315C446.456 150.816 446.801 148.294 446.667 145.81L446.628 145.183C446.59 144.81 446.546 144.437 446.488 144.079C446.175 142.228 445.493 140.483 445.11 138.647C444.727 136.812 444.689 134.745 445.582 133.163C446.89 130.843 449.614 130.38 452.007 130.142C454.718 129.873 457.142 130.224 458.878 127.59C459.69 126.213 460.604 124.923 461.608 123.733C461.966 123.345 465.436 120.868 465.436 120.703C468.824 118.869 472.663 118.524 476.25 119.734C478.049 120.345 479.746 121.345 481.571 121.845C485.507 122.934 490.037 121.755 493.38 124.389C495.243 125.881 496.359 128.254 497.406 130.567C498.256 132.472 499.12 134.374 499.996 136.275C501.406 139.401 502.841 142.579 503.435 146.041C503.559 146.794 503.636 147.557 503.664 148.324V148.361C503.664 148.637 503.664 148.913 503.664 149.189V149.54C503.664 149.801 503.664 150.055 503.626 150.286C503.588 150.518 503.594 150.592 503.575 150.749C503.556 150.905 503.524 151.256 503.486 151.495C503.447 151.734 503.371 152.151 503.294 152.48C503.262 152.622 503.218 152.756 503.18 152.89C503.116 153.144 503.039 153.39 502.956 153.636C502.912 153.763 502.867 153.897 502.816 154.024C502.72 154.285 502.605 154.539 502.49 154.77C502.439 154.875 502.401 154.972 502.35 155.069C502.172 155.416 501.976 155.75 501.763 156.068C500.398 158.061 498.388 159.329 496.902 161.194C496.902 161.269 496.902 161.343 496.902 161.411C496.902 161.619 496.902 161.821 496.902 162.03C496.823 166.19 495.876 170.264 494.144 173.898C492.411 177.533 489.946 180.617 486.962 182.883C486.962 183.167 486.93 183.458 486.917 183.741C486.793 185.956 486.816 188.179 486.987 190.389C487.247 190.031 487.572 189.746 487.939 189.555C488.306 189.364 488.704 189.271 489.106 189.285C489.38 189.269 489.654 189.297 489.922 189.367L489.98 189.315V189.382C491.383 189.785 493.112 191.493 494.764 196.35C494.764 196.35 499.792 202.976 503.62 202.7C507.448 202.423 517.139 209.593 517.139 209.593C517.139 209.593 526.594 216.771 528.622 224.083C529.756 228.229 531.116 232.286 532.693 236.229L544.381 264.394L546.537 286.74C546.537 286.74 545.344 296.678 545.58 298.193C545.816 299.707 540.674 313.368 540.674 313.368C540.674 313.368 523.684 348.278 516.743 350.069L516.245 349.658C515.948 349.84 515.633 349.978 515.308 350.069L513.879 348.89C513.793 350.204 513.829 351.525 513.987 352.829C514.944 356.276 513.63 378.771 511.958 383.18C510.287 387.59 510.88 445.405 510.88 445.405L511.116 450.508C511.116 450.508 511.116 450.672 511.059 450.956L511.116 452.165L510.944 452.269C510.765 453.888 510.823 455.53 511.116 457.126C511.716 459.364 511.958 465.691 511.958 465.691C511.958 465.691 516.737 501.414 514.472 508.592C512.207 515.769 510.28 523.633 510.28 523.633C510.28 523.633 507.888 532.586 510.165 534.116C512.443 535.645 518.919 538.212 517.585 541.942C516.373 545.389 511.773 554.626 511.091 555.977L511.148 556.685L512.086 568.571C511.934 570.14 511.57 571.671 511.008 573.107C509.98 575.696 507.984 578.382 504.188 578.091C503.55 578.039 502.809 577.949 502.095 577.837C495.147 576.748 486.592 573.122 486.592 573.122C487.036 572.792 487.443 572.398 487.804 571.95C488.146 571.564 488.416 571.1 488.599 570.586C488.782 570.073 488.874 569.522 488.869 568.966C488.767 566.802 492.232 556.491 493.093 553.955C493.227 553.589 493.297 553.38 493.297 553.38C493.297 553.38 485.399 543.726 486.713 535.168C486.713 535.168 495.454 529.199 492.576 525.924C489.699 522.648 484.557 513.24 484.557 513.24C484.557 513.24 484.321 478.062 484.557 472.809C484.803 469.163 484.655 465.496 484.117 461.894C484.021 461.349 483.906 460.819 483.785 460.297C479.805 460.992 475.788 461.348 471.765 461.364C470.298 461.364 468.805 461.364 467.299 461.259C467.299 461.757 467.28 462.294 467.242 462.871C466.91 471.585 466.291 486.866 465.787 492.543C465.073 500.683 461.123 522.618 461.123 522.618C461.123 522.618 468.658 528.274 459.809 542.211C459.809 542.211 459.809 547.262 460.396 547.993C461.023 550.384 461.528 552.815 461.908 555.275C462.278 557.901 462.431 560.558 461.832 561.938C460.396 565.236 451.783 564.967 451.783 564.967L451.573 564.922C449.947 564.726 448.304 564.909 446.739 565.461C445.174 566.013 443.718 566.923 442.456 568.138C439.183 571.212 426.762 569.861 420.037 568.884C417.402 568.496 415.641 568.138 415.641 568.138C415.556 567.789 415.526 567.425 415.552 567.064C415.622 565.131 416.917 560.893 425.696 557.111C425.696 557.111 433.952 550.62 433.837 544.964H434.009H434.966C434.271 544.919 433.824 544.964 433.824 544.964C433.824 544.964 437.059 531.161 435.738 530.042C434.417 528.923 438.373 513.628 438.373 513.628C438.373 513.628 440.638 487.962 440.759 486.164C440.754 484.621 440.554 483.088 440.166 481.613L440.759 467.542C440.759 467.542 440.874 462.864 440.759 461.342C440.778 460.02 440.87 458.702 441.033 457.395C441.091 456.872 441.148 456.328 441.212 455.791C438.118 454.873 436.108 454.022 436.108 454.022L436.465 405.041C433.837 399.072 433.352 385.978 433.365 376.689C433.365 370.721 433.594 366.304 433.594 366.304L430.003 359.447C430.003 359.447 429.173 351.24 430.487 349.442C431.068 348.629 430.806 347.786 430.328 347.092C430.079 346.861 429.817 346.652 429.543 346.465C429.543 346.465 429.581 346.398 429.626 346.301C429.375 346.056 429.109 345.834 428.829 345.637C428.829 345.637 430.105 343.324 428.963 342.347C427.891 343.197 426.934 343.839 426.207 344.361C426.258 344.906 426.309 345.219 426.309 345.219L426.002 344.473C425.301 344.935 424.873 345.219 424.873 345.219C424.873 345.219 419.246 332.11 419.367 330.178C419.489 328.245 415.539 320.105 415.539 320.105C415.539 320.105 415.061 315.83 412.905 314.04C410.748 312.249 411.233 299.274 411.233 299.274C411.233 299.274 410.633 292.515 409.198 289.754C407.762 286.994 410.506 283.271 410.506 283.271ZM518.172 277.518L518.064 280.644C518.702 279.443 519.161 278.578 519.161 278.578L518.172 277.518Z" fill="url(#paint0_linear_1_390)"/>
<path d="M424.567 339.556L425.945 346.42C425.945 346.42 436.982 339.832 438.973 331.461C440.963 323.09 435.642 319.911 435.642 319.911L425.358 325.007L424.567 339.556Z" fill="white"/>
<path opacity="0.1" d="M424.567 339.556L425.945 346.42C425.945 346.42 436.982 339.832 438.973 331.461C440.963 323.09 435.642 319.911 435.642 319.911L425.358 325.007L424.567 339.556Z" fill="black"/>
<path d="M486.509 573.167C486.509 573.167 496.717 577.554 503.735 578.106C507.46 578.397 509.419 575.726 510.427 573.152C510.978 571.721 511.333 570.198 511.48 568.638L510.567 556.812L510.083 550.515L495.173 545.986L493.061 553.537L492.863 554.111C492.015 556.633 488.614 566.892 488.716 569.033C488.721 569.582 488.63 570.125 488.45 570.632C488.27 571.138 488.005 571.597 487.67 571.98C487.328 572.432 486.938 572.831 486.509 573.167Z" fill="white"/>
<path d="M416.783 567.153C416.758 567.512 416.788 567.874 416.873 568.22C416.873 568.22 438.705 572.48 443.171 568.22C444.43 566.975 445.897 566.052 447.479 565.51C449.062 564.968 450.723 564.819 452.358 565.071C452.358 565.071 460.804 565.34 462.214 562.087C462.801 560.722 462.648 558.073 462.285 555.462C461.914 553.015 461.419 550.596 460.804 548.217L460.466 547.904L458.457 546.016L434.928 545.203H434.749C434.864 550.828 426.762 557.282 426.762 557.282C418.155 561.013 416.885 565.228 416.783 567.153Z" fill="white"/>
<path opacity="0.1" d="M416.783 567.153C416.761 567.513 416.794 567.874 416.879 568.22C416.879 568.22 438.705 572.48 443.171 568.22C444.429 566.976 445.896 566.054 447.477 565.512C449.057 564.97 450.718 564.82 452.351 565.072C452.351 565.072 460.805 565.34 462.208 562.087C462.795 560.714 462.648 558.073 462.285 555.462C459.031 555.842 453.895 556.79 451.879 559.051C448.83 562.49 443.662 565.922 440.491 566.191C438.009 566.377 423.163 566.929 416.783 567.153Z" fill="black"/>
<path opacity="0.1" d="M486.509 573.167C486.509 573.167 496.717 577.554 503.735 578.106C507.46 578.397 509.419 575.726 510.421 573.144C507.824 574.166 504.219 575.241 502.325 574.256C500.079 573.092 492.117 572.338 487.651 572.018C487.311 572.453 486.928 572.838 486.509 573.167Z" fill="black"/>
<path d="M471.363 219.629C479.785 215.801 490.618 203.155 487.913 197.246C487.312 195.755 486.955 194.145 486.86 192.501C486.686 190.268 486.66 188.023 486.783 185.786C486.973 182.122 487.35 178.474 487.913 174.863C487.913 174.863 461.621 175.557 463.152 180.085C463.599 181.414 463.669 183.719 463.548 186.3C463.427 188.882 463.108 191.799 462.776 194.269C462.317 197.656 461.857 200.238 461.857 200.238C461.857 200.238 463.465 202.871 464.409 203.013C465.353 203.155 459.28 225.083 471.363 219.629Z" fill="#CF6F80"/>
<path opacity="0.1" d="M492.882 554.111L493.08 554.365C500.94 543.248 510.446 557.103 510.446 557.103L510.587 556.812L510.102 550.515L495.192 545.986L493.08 553.537L492.882 554.111Z" fill="black"/>
<path opacity="0.1" d="M434.743 545.986C434.743 545.986 440.485 545.845 443.547 549.008C446.609 552.171 461.411 549.694 460.773 549.008C460.584 548.668 460.47 548.278 460.441 547.874L458.431 545.986L434.902 545.173C434.813 545.673 434.743 545.986 434.743 545.986Z" fill="black"/>
<path d="M483.102 458.685C483.53 459.922 483.854 461.204 484.072 462.513C484.604 466.099 484.752 469.748 484.512 473.376C484.276 478.599 484.512 513.598 484.512 513.598C484.512 513.598 489.558 522.932 492.372 526.222C495.186 529.512 486.63 535.422 486.63 535.422C485.354 543.927 493.087 553.537 493.087 553.537C500.947 542.42 510.453 556.282 510.453 556.282C510.453 556.282 515.62 545.837 516.909 542.107C518.198 538.376 511.862 535.795 509.636 534.28C507.409 532.765 509.744 523.835 509.744 523.835C509.744 523.835 511.626 516.008 513.859 508.868C516.092 501.728 511.397 466.184 511.397 466.184C511.397 466.184 511.154 459.872 510.574 457.671C510.281 456.083 510.223 454.447 510.401 452.836C510.44 452.291 510.484 451.836 510.516 451.53C510.548 451.225 510.574 451.083 510.574 451.083L510.484 450.904L507.294 443.95C507.294 443.95 481.571 454.306 483.102 458.685Z" fill="#048ABF"/>
<path d="M434.743 545.166C434.743 545.166 440.485 545.024 443.547 548.15C446.609 551.276 461.411 548.836 460.773 548.15C460.135 547.464 460.186 542.383 460.186 542.383C468.869 528.52 461.462 522.895 461.462 522.895C461.462 522.895 465.341 501.071 466.042 492.976C466.534 487.321 467.14 472.123 467.465 463.446C467.605 459.715 467.688 457.149 467.688 457.149L460.594 455.477L459.682 455.261L442.571 451.247C442.571 451.247 442.099 454.977 441.78 458.029C441.621 459.332 441.531 460.645 441.512 461.961C441.627 463.453 441.512 468.124 441.512 468.124L440.931 482.128C441.311 483.597 441.506 485.122 441.512 486.657C441.397 488.44 439.17 513.971 439.17 513.971C439.17 513.971 435.298 529.207 436.618 530.303C437.939 531.4 434.743 545.166 434.743 545.166Z" fill="#048ABF"/>
<path opacity="0.1" d="M463.152 180.085C463.599 181.414 463.669 183.719 463.548 186.3C467.069 188.78 471.118 190.048 475.228 189.959C479.338 189.869 483.343 188.425 486.783 185.793C486.973 182.127 487.35 178.477 487.913 174.863C487.913 174.863 461.621 175.542 463.152 180.085Z" fill="black"/>
<path d="M452.989 163.597C452.984 166.285 453.346 168.958 454.061 171.513C455.659 177.238 458.937 182.118 463.315 185.291C467.692 188.463 472.888 189.724 477.983 188.85C483.079 187.976 487.746 185.023 491.16 180.514C494.574 176.005 496.515 170.23 496.64 164.209C496.64 164 496.64 163.806 496.64 163.597C496.69 160.208 496.162 156.841 495.087 153.693C494.012 150.545 492.412 147.679 490.38 145.262C488.348 142.845 485.925 140.925 483.252 139.614C480.579 138.304 477.71 137.629 474.811 137.629C471.913 137.629 469.044 138.304 466.371 139.614C463.698 140.925 461.275 142.845 459.243 145.262C457.211 147.679 455.611 150.545 454.536 153.693C453.461 156.841 452.933 160.208 452.983 163.597H452.989Z" fill="#CF6F80"/>
<path opacity="0.1" d="M471.363 219.629C479.785 215.801 490.618 203.155 487.913 197.246C487.312 195.755 486.955 194.145 486.86 192.5L475.331 203.58L468.199 210.422L462.776 194.276C462.317 197.663 461.857 200.245 461.857 200.245C461.857 200.245 463.465 202.879 464.409 203.02C465.353 203.162 459.28 225.083 471.363 219.629Z" fill="black"/>
<path d="M441.55 268.595L451.177 457.731L463.733 458.693L496.245 349.024L490.911 218.823L489.788 191.314L475.331 205.199L468.192 212.041L462.61 195.425L452.23 206.005L441.55 268.595Z" fill="#048ABF"/>
<path opacity="0.1" d="M483.102 458.685C483.53 459.922 483.854 461.204 484.072 462.513C493.208 460.863 502.081 457.622 510.395 452.896L510.567 452.791L510.51 451.59L510.478 450.963L507.288 444.01C507.288 444.01 481.571 454.306 483.102 458.685Z" fill="black"/>
<path opacity="0.1" d="M460.447 462.543C462.783 463.007 465.138 463.321 467.503 463.483C467.644 459.753 467.727 457.186 467.727 457.186L460.632 455.515L460.447 462.543Z" fill="black"/>
<path opacity="0.1" d="M441.818 458.066C446.354 459.447 453.359 460.999 459.631 460.029L459.72 455.298L442.609 451.284C442.609 451.284 442.137 454.978 441.818 458.066Z" fill="black"/>
<path opacity="0.1" d="M459.745 460.894C485.903 466.117 509.859 451.142 509.859 451.142L509.63 446.069C509.63 446.069 509.036 388.552 510.682 384.143C512.328 379.733 513.611 357.373 512.679 353.941C511.748 350.509 516.08 299.043 516.08 299.043L516.781 278.152L542.467 265.984L530.983 237.99C529.432 234.065 528.098 230.028 526.989 225.903C524.992 218.636 515.722 211.496 515.722 211.496C515.722 211.496 506.216 204.363 502.459 204.632C498.701 204.901 493.776 198.32 493.776 198.32C490.139 187.479 486.847 192.389 486.847 192.389C486.847 192.903 486.847 192.389 487.026 193.993C488.302 205.893 466.393 243.496 466.081 244.16L463.994 303.594L461.883 378.808L459.745 460.894Z" fill="black"/>
<path d="M460.447 460.894C486.605 466.117 510.567 451.143 510.567 451.143L510.331 446.069C510.331 446.069 509.738 388.552 511.39 384.143C513.043 379.734 514.319 357.373 513.381 353.941C512.443 350.509 516.781 299.043 516.781 299.043L517.49 278.153L543.188 265.939L531.704 237.945C530.156 234.019 528.822 229.982 527.71 225.859C525.72 218.592 516.443 211.451 516.443 211.451C516.443 211.451 506.937 204.319 503.186 204.587C499.435 204.856 494.503 198.275 494.503 198.275C490.86 187.435 486.847 192.344 486.847 192.344C486.847 192.859 487.23 193.09 487.026 193.948C484.219 205.49 467.095 243.452 466.782 244.116L464.671 303.55L462.559 378.764L460.447 460.894Z" fill="white"/>
<path opacity="0.1" d="M467.497 245.809C470.31 244.436 485.214 224.538 485.214 224.538V220.009C485.756 218.517 488.978 219.427 491.594 220.472L490.471 192.963L489.195 194.202C486.4 205.736 467.822 245.145 467.497 245.809Z" fill="black"/>
<path d="M466.789 244.16C469.609 242.787 484.512 222.889 484.512 222.889V218.36C485.054 216.868 488.276 217.778 490.892 218.823L489.763 191.314L488.487 192.553C485.686 204.087 467.101 243.504 466.789 244.16Z" fill="white"/>
<path opacity="0.1" d="M509.859 343.399C509.508 343.399 491.67 341.205 491.67 341.205C491.67 341.205 480.869 366.043 481.577 372.086C482.285 378.129 483.568 383.479 487.912 382.531C492.257 381.584 511.295 383.278 511.295 383.278L509.859 343.399Z" fill="black"/>
<path d="M510.567 341.75C510.217 341.75 492.378 339.556 492.378 339.556C492.378 339.556 481.584 364.401 482.285 370.437C482.987 376.473 484.282 381.83 488.621 380.882C492.959 379.935 512.003 381.629 512.003 381.629L510.567 341.75Z" fill="white"/>
<path d="M497.125 330.088C497.125 330.088 480.754 340.377 480.403 343.518C480.053 346.659 488.736 342.145 490.611 341.601C491.846 341.253 493.102 341.023 494.369 340.914L506.88 341.31L497.125 330.088Z" fill="#CF6F80"/>
<path opacity="0.1" d="M472.065 247.092C471.114 247.092 470.342 246.191 470.342 245.078C470.342 243.965 471.114 243.063 472.065 243.063C473.016 243.063 473.788 243.965 473.788 245.078C473.788 246.191 473.016 247.092 472.065 247.092Z" fill="black"/>
<path d="M472.065 246.272C471.114 246.272 470.342 245.37 470.342 244.257C470.342 243.145 471.114 242.243 472.065 242.243C473.016 242.243 473.788 243.145 473.788 244.257C473.788 245.37 473.016 246.272 472.065 246.272Z" fill="#3F3D56"/>
<path opacity="0.1" d="M468.894 334.296C467.943 334.296 467.172 333.394 467.172 332.282C467.172 331.169 467.943 330.267 468.894 330.267C469.845 330.267 470.617 331.169 470.617 332.282C470.617 333.394 469.845 334.296 468.894 334.296Z" fill="black"/>
<path d="M468.894 333.468C467.943 333.468 467.172 332.566 467.172 331.454C467.172 330.341 467.943 329.439 468.894 329.439C469.845 329.439 470.617 330.341 470.617 331.454C470.617 332.566 469.845 333.468 468.894 333.468Z" fill="#3F3D56"/>
<path opacity="0.1" d="M470.349 290.694C469.397 290.694 468.626 289.792 468.626 288.68C468.626 287.567 469.397 286.665 470.349 286.665C471.3 286.665 472.071 287.567 472.071 288.68C472.071 289.792 471.3 290.694 470.349 290.694Z" fill="black"/>
<path d="M470.349 289.874C469.397 289.874 468.626 288.972 468.626 287.859C468.626 286.747 469.397 285.845 470.349 285.845C471.3 285.845 472.071 286.747 472.071 287.859C472.071 288.972 471.3 289.874 470.349 289.874Z" fill="#3F3D56"/>
<path d="M430.64 340.496C430.64 340.496 429.467 342.556 430.64 343.518C431.814 344.48 430.526 346.808 430.526 346.808C430.526 346.808 433.454 348.815 432.165 350.621C430.877 352.426 431.693 360.581 431.693 360.581L435.215 367.401C435.215 367.401 435.004 371.795 434.992 377.734C434.992 387.001 435.457 400.027 438.035 405.966L437.677 454.694C437.677 454.694 450.01 459.961 460.332 458.357L461.864 380.166C461.864 380.166 459.631 335.826 458.808 327.32C458.326 322.905 458.13 318.453 458.221 314.002C458.221 314.002 458.572 300.692 459.752 294.514C459.752 294.514 461.028 267.752 461.155 260.343C461.213 256.799 461.053 246.458 460.875 236.625C460.677 225.873 460.454 215.734 460.454 215.734L462.782 194.187C462.782 194.187 460.454 193.911 459.752 195.007C459.437 195.351 459.096 195.658 458.731 195.925C454.712 199.104 440.51 208.877 440.51 208.877C440.51 208.877 432.65 212.533 430.768 217.771C428.886 223.008 427.578 226.724 426.666 228.216C425.754 229.708 425.256 236.722 425.256 236.722C425.256 236.722 422.551 249.629 420.439 251.815C418.327 254.001 416.783 267.909 416.783 267.909L435.445 285.069C435.445 285.069 437.084 313.614 437.435 314.719C437.786 315.823 430.64 340.496 430.64 340.496Z" fill="white"/>
<path d="M429.932 340.496C429.932 340.496 428.765 342.556 429.932 343.518C431.1 344.48 429.824 346.808 429.824 346.808C429.824 346.808 432.733 348.838 431.457 350.643C430.181 352.449 430.985 360.604 430.985 360.604L434.507 367.423C434.507 367.423 434.296 371.817 434.277 377.756C434.277 387.023 434.743 400.05 437.32 405.989L436.969 454.716C436.969 454.716 449.321 459.984 459.631 458.38L461.155 380.189C461.155 380.189 458.922 335.848 458.099 327.343C457.617 322.927 457.423 318.475 457.519 314.025C457.519 314.025 457.87 300.714 459.044 294.537C459.044 294.537 460.32 267.774 460.454 260.365C460.511 256.822 460.345 246.481 460.173 236.647C459.975 225.896 459.752 215.756 459.752 215.756L462.827 193.918C462.827 193.918 459.752 193.918 459.044 195.03C458.732 195.377 458.39 195.685 458.023 195.947C454.004 199.126 439.796 208.9 439.796 208.9C439.796 208.9 431.942 212.556 430.06 217.793C428.178 223.031 426.87 226.746 425.951 228.239C425.033 229.731 424.548 236.744 424.548 236.744C424.548 236.744 421.843 249.652 419.731 251.838C417.619 254.024 416.094 267.901 416.094 267.901L434.756 285.061C434.756 285.061 436.395 313.607 436.752 314.711C437.11 315.815 429.932 340.496 429.932 340.496Z" fill="white"/>
<path opacity="0.1" d="M452.281 222.091L450.597 227.836L459.465 238.281C459.267 227.537 459.044 217.39 459.044 217.39L462.119 195.552C462.119 195.552 459.044 195.552 458.335 196.664C458.025 197.01 457.683 197.315 457.315 197.574L449.774 223.016L452.281 222.091Z" fill="black"/>
<path d="M452.989 220.442L451.299 226.187L460.167 236.632C459.969 225.881 459.745 215.741 459.745 215.741L462.827 193.903C462.827 193.903 459.745 193.903 459.044 195.015C458.731 195.36 458.389 195.668 458.023 195.933L450.476 221.367L452.989 220.442Z" fill="white"/>
<path opacity="0.1" d="M452.989 163.597C452.984 166.285 453.346 168.958 454.061 171.513C454.182 171.535 454.305 171.528 454.423 171.494C454.541 171.459 454.653 171.397 454.75 171.311C454.916 164.597 457.742 158.292 461.219 152.928C462.195 151.308 463.379 149.874 464.728 148.675C466.092 147.477 467.789 146.915 469.487 147.101C471.401 147.406 473.092 148.929 475.025 149.122C477.577 149.369 479.861 147.302 482.394 147.198C483.424 147.209 484.439 147.477 485.373 147.984C486.307 148.491 487.138 149.225 487.81 150.137C489.141 151.978 490.13 154.122 490.713 156.434C491.716 159.94 492.263 163.602 492.334 167.297C492.366 169.386 492.538 172.005 494.197 172.766C494.072 171.23 494.221 169.68 494.635 168.215C495.049 166.749 495.719 165.4 496.602 164.253L496.64 164.209C496.64 164 496.64 163.806 496.64 163.597C496.69 160.208 496.162 156.841 495.087 153.693C494.012 150.545 492.412 147.679 490.38 145.262C488.348 142.845 485.925 140.925 483.252 139.614C480.579 138.304 477.71 137.629 474.811 137.629C471.913 137.629 469.044 138.304 466.371 139.614C463.698 140.925 461.275 142.845 459.243 145.262C457.211 147.679 455.611 150.545 454.536 153.693C453.461 156.841 452.933 160.208 452.983 163.597H452.989Z" fill="black"/>
<path d="M465.774 123.061C469.09 121.238 472.86 120.893 476.378 122.091C478.145 122.703 479.81 123.696 481.603 124.195C485.431 125.277 489.897 124.106 493.182 126.725C495.007 128.217 496.104 130.575 497.125 132.865L499.677 138.55C501.068 141.662 502.471 144.825 503.052 148.25C503.632 151.674 503.282 155.509 501.425 158.262C500.073 160.269 498.076 161.53 496.608 163.418C495.729 164.566 495.062 165.914 494.65 167.378C494.237 168.841 494.087 170.389 494.209 171.923C492.544 171.177 492.385 168.551 492.347 166.462C492.275 162.766 491.729 159.104 490.726 155.599C490.144 153.286 489.155 151.141 487.823 149.302C487.15 148.39 486.32 147.657 485.386 147.15C484.452 146.643 483.436 146.374 482.407 146.362C479.855 146.466 477.564 148.526 475.038 148.279C473.124 148.093 471.427 146.563 469.5 146.265C467.801 146.077 466.104 146.638 464.741 147.839C463.392 149.036 462.21 150.471 461.238 152.092C457.755 157.456 454.929 163.746 454.763 170.476C454.042 171.095 453.002 170.289 452.645 169.334C452.287 168.379 452.275 167.26 451.822 166.35C451.299 165.298 450.297 164.738 449.512 163.947C447.522 161.94 447.024 158.561 447.101 155.494C447.177 152.428 447.688 149.316 447.19 146.302C446.89 144.452 446.214 142.721 445.844 140.893C445.474 139.065 445.429 137.013 446.303 135.439C447.579 133.126 450.265 132.671 452.606 132.455C455.267 132.186 457.646 132.529 459.343 129.911C460.14 128.544 461.037 127.261 462.023 126.076C462.361 125.688 465.774 123.225 465.774 123.061Z" fill="#512E4E"/>
<path opacity="0.1" d="M535.117 280.398L541.784 265.984L543.896 288.225C543.896 288.225 542.722 298.103 542.958 299.618C543.194 301.132 538.148 314.711 538.148 314.711C538.148 314.711 521.477 349.435 514.67 351.225L491.67 332.006L497.769 322.948C497.769 322.948 499.881 321.986 500.411 322.948C500.411 322.948 511.735 300.162 512.909 298.513C514.083 296.865 513.853 293.574 513.853 293.574C513.853 293.574 515.614 291.381 515.027 289.322C514.44 287.262 518.427 280.122 518.427 280.122L514.791 276.145L535.117 280.398Z" fill="black"/>
<path d="M541.433 264.342L543.194 265.984L545.306 288.225C545.306 288.225 544.132 298.103 544.368 299.618C544.604 301.132 539.551 314.711 539.551 314.711C539.551 314.711 522.887 349.435 516.08 351.225L493.074 332.006L499.179 322.948C499.179 322.948 501.291 321.986 501.821 322.948C501.821 322.948 513.145 300.162 514.319 298.513C515.493 296.865 515.257 293.574 515.257 293.574C515.257 293.574 517.017 291.381 516.431 289.321C515.844 287.262 519.837 280.122 519.837 280.122L516.201 276.145L541.433 264.342Z" fill="white"/>
<path opacity="0.1" d="M432.165 351.471C430.889 353.284 431.693 361.424 431.693 361.424L435.215 368.244C435.215 368.244 435.004 372.646 434.992 378.577L440.912 380.741C441.447 380.936 442.014 380.979 442.567 380.866C443.119 380.753 443.64 380.487 444.086 380.091C444.533 379.694 444.891 379.179 445.133 378.587C445.374 377.995 445.491 377.345 445.474 376.689L444.453 338.183L430.641 344.361C431.814 345.316 430.526 347.659 430.526 347.659C430.526 347.659 433.454 349.658 432.165 351.471Z" fill="black"/>
<path d="M431.457 350.643C430.181 352.456 430.985 360.604 430.985 360.604L434.507 367.423C434.507 367.423 434.296 371.817 434.277 377.756L440.306 379.957C440.83 380.148 441.385 380.189 441.926 380.078C442.466 379.967 442.976 379.706 443.413 379.318C443.85 378.929 444.201 378.425 444.437 377.845C444.674 377.266 444.788 376.63 444.772 375.988L443.745 337.363L429.926 343.54C431.106 344.495 429.817 346.831 429.817 346.831C429.817 346.831 432.733 348.838 431.457 350.643Z" fill="white"/>
<path d="M426.883 332.289C426.883 332.289 427.821 339.295 430.168 339.705C432.516 340.116 433.569 351.039 435.91 350.651C438.252 350.263 436.701 340.496 436.618 338.601C436.536 336.706 439.17 328.857 437.199 327.074C435.228 325.291 428.988 327.074 428.988 327.074L426.883 332.289Z" fill="#CF6F80"/>
<path opacity="0.1" d="M421.887 278.339L417.46 267.894C417.46 267.894 415.699 275.854 415.699 280.107C415.699 284.36 413.236 284.778 413.236 284.778C413.236 284.778 410.538 288.508 411.96 291.224C413.383 293.94 413.957 300.699 413.957 300.699C413.957 300.699 413.491 313.599 415.603 315.383C417.715 317.166 418.155 321.426 418.155 321.426C418.155 321.426 422.034 329.521 421.913 331.446C421.792 333.371 427.31 346.405 427.31 346.405C427.31 346.405 424.612 330.208 440.338 323.209C440.338 323.209 440.459 317.71 439.285 316.203C438.111 314.696 436.28 314.01 437.429 306.392C438.577 298.775 437.76 289.672 437.76 287.844C437.76 286.016 434.239 274.616 434.239 274.616L421.887 278.339Z" fill="black"/>
<path d="M419.973 266.401L416.107 267.894C416.107 267.894 414.34 275.855 414.34 280.107C414.34 284.36 411.877 284.778 411.877 284.778C411.877 284.778 409.179 288.508 410.601 291.224C412.024 293.94 412.592 300.7 412.592 300.7C412.592 300.7 412.126 313.6 414.238 315.383C416.35 317.166 416.822 321.426 416.822 321.426C416.822 321.426 420.694 329.521 420.573 331.446C420.452 333.371 425.977 346.405 425.977 346.405C425.977 346.405 423.272 330.208 439.004 323.209C439.004 323.209 439.119 317.711 437.945 316.203C436.772 314.696 434.941 314.01 436.089 306.392C437.237 298.775 436.421 289.672 436.421 287.844C436.421 286.016 432.899 274.616 432.899 274.616L419.973 266.401Z" fill="white"/>
<path opacity="0.1" d="M505.368 537.138C505.368 537.138 499.205 532.609 495.16 535.899C491.115 539.19 505.368 537.138 505.368 537.138Z" fill="black"/>
<path opacity="0.1" d="M457.481 523.133C457.481 523.133 452.026 522.313 447.445 528.08C442.864 533.847 457.481 523.133 457.481 523.133Z" fill="black"/>
<g opacity="0.1">
<path d="M449.499 162.313C450.284 163.104 451.292 163.671 451.815 164.723C452.262 165.626 452.275 166.738 452.632 167.708C452.989 168.678 454.029 169.468 454.75 168.857C454.916 162.142 457.749 155.837 461.226 150.465C462.198 148.844 463.379 147.409 464.728 146.213C466.094 145.012 467.793 144.451 469.494 144.638C471.408 144.944 473.092 146.466 475.025 146.653C477.577 146.906 479.868 144.84 482.4 144.735C483.43 144.747 484.445 145.016 485.378 145.525C486.311 146.033 487.14 146.769 487.81 147.682C489.142 149.519 490.131 151.662 490.713 153.972C491.716 157.478 492.262 161.14 492.334 164.835C492.372 166.917 492.538 169.513 494.184 170.289C494.146 170.84 494.146 171.394 494.184 171.945C492.525 171.199 492.359 168.573 492.321 166.484C492.25 162.788 491.704 159.126 490.701 155.621C490.118 153.308 489.13 151.164 487.798 149.324C487.126 148.412 486.296 147.679 485.364 147.172C484.431 146.665 483.416 146.397 482.388 146.384C479.836 146.489 477.539 148.548 475.012 148.302C473.099 148.115 471.401 146.586 469.481 146.287C467.78 146.099 466.081 146.661 464.715 147.861C463.367 149.058 462.185 150.493 461.213 152.114C457.736 157.479 454.903 163.768 454.737 170.498C454.016 171.117 452.976 170.311 452.619 169.356C452.262 168.401 452.249 167.282 451.803 166.372C451.279 165.32 450.271 164.761 449.487 163.97C447.496 161.963 446.999 158.583 447.075 155.516C447.075 155.419 447.075 155.322 447.075 155.233C447.196 157.889 447.802 160.597 449.499 162.313Z" fill="black"/>
<path d="M496.596 161.784C498.063 159.896 500.066 158.635 501.412 156.636C502.546 154.866 503.193 152.735 503.269 150.525C503.47 153.286 502.81 156.039 501.412 158.277C500.066 160.284 498.063 161.545 496.596 163.433C495.187 165.279 494.341 167.619 494.19 170.088C494.093 168.586 494.255 167.076 494.669 165.649C495.082 164.222 495.737 162.907 496.596 161.784Z" fill="black"/>
<path d="M445.831 139.259C446.207 141.087 446.877 142.825 447.184 144.668C447.365 145.9 447.431 147.15 447.381 148.399C447.36 147.688 447.294 146.979 447.184 146.28C446.877 144.429 446.207 142.699 445.831 140.871C445.612 139.862 445.54 138.818 445.62 137.782C445.66 138.279 445.73 138.773 445.831 139.259Z" fill="black"/>
</g>
<path opacity="0.1" d="M620.32 567.474C585.987 567.474 558.155 562.246 558.155 555.798C558.155 549.349 585.987 544.121 620.32 544.121C654.653 544.121 682.485 549.349 682.485 555.798C682.485 562.246 654.653 567.474 620.32 567.474Z" fill="#048ABF"/>
<path d="M618.317 332.118H622.317V437.444H618.317V332.118Z" fill="#535461"/>
<path d="M593.18 437.123L593.429 441.869L593.786 448.583L593.933 451.374L594.284 458.089L594.437 460.879L594.794 467.594L598.826 543.748C599.002 547.025 600.238 550.1 602.284 552.348C604.329 554.596 607.031 555.849 609.838 555.85H630.802C633.609 555.848 636.31 554.596 638.354 552.348C640.399 550.099 641.634 547.024 641.807 543.748L645.82 467.542L646.178 460.827L646.324 458.036L646.682 451.322L646.828 448.531L647.186 441.816L647.441 437.071C647.485 436.158 647.37 435.244 647.101 434.384C646.832 433.525 646.416 432.739 645.879 432.075C645.341 431.411 644.693 430.882 643.974 430.521C643.255 430.16 642.481 429.974 641.699 429.976H598.82C598.041 429.984 597.271 430.178 596.559 430.547C595.846 430.916 595.206 431.452 594.677 432.122C594.149 432.792 593.743 433.581 593.486 434.441C593.228 435.302 593.124 436.214 593.18 437.123Z" fill="#3F3D56"/>
<path d="M593.429 441.869L593.786 448.561H646.854L647.211 441.869H593.429Z" fill="#9D9CB5"/>
<path d="M593.933 451.351L594.284 458.051H646.35L646.707 451.351H593.933Z" fill="#9D9CB5"/>
<path d="M594.437 460.849L594.788 467.542H645.846L646.203 460.849H594.437Z" fill="#9D9CB5"/>
<path d="M653.317 371.594C630.024 391.305 620.301 422.134 620.301 422.134C620.301 422.134 648.372 421.008 671.672 401.296C694.971 381.584 704.675 350.763 704.675 350.763C704.675 350.763 676.616 351.882 653.317 371.594Z" fill="#048ABF"/>
<path d="M704.694 350.763C704.694 350.763 675.551 369.676 666.204 385.337C656.858 400.997 620.301 422.134 620.301 422.134" stroke="#535461" stroke-width="2" stroke-miterlimit="10"/>
<path d="M638.279 331.886C625.603 342.608 620.301 359.387 620.301 359.387C620.301 359.387 635.581 358.776 648.264 348.054C660.947 337.333 666.236 320.546 666.236 320.546C666.236 320.546 650.963 321.157 638.279 331.886Z" fill="#048ABF"/>
<path d="M666.236 320.546C666.236 320.546 650.376 330.842 645.291 339.362C640.206 347.883 620.301 359.387 620.301 359.387" stroke="#535461" stroke-width="2" stroke-miterlimit="10"/>
<path d="M601.895 358.537C616.46 377.257 619.542 401.721 619.542 401.721C619.542 401.721 599.005 395.827 584.453 377.1C569.9 358.373 566.806 333.916 566.806 333.916C566.806 333.916 587.33 339.817 601.895 358.537Z" fill="#048ABF"/>
<path d="M566.793 333.923C566.793 333.923 585.767 353.113 590.59 366.334C595.413 379.555 619.542 401.721 619.542 401.721" stroke="#535461" stroke-width="2" stroke-miterlimit="10"/>
<path d="M67.2245 351.949C67.2245 351.949 77.7576 290.665 73.7256 283.039C73.7256 283.039 73.5789 275.952 73.8213 266.916C73.8213 266.573 73.8213 266.23 73.8213 265.879C73.1118 266.432 72.3723 266.931 71.6074 267.371C67.8925 269.603 63.6274 270.247 59.5495 269.192L62.7395 265.036C63.5051 264.044 64.3025 262.969 64.4684 261.656C64.6343 260.343 64.1749 259.172 63.7793 258C60.7489 249.047 60.5894 237.789 66.427 230.954C71.3586 225.209 72.558 217.793 77.9107 212.548C81.8216 208.706 83.9716 203.073 86.0004 197.626C87.7166 193.023 89.4455 188.382 90.428 183.503C91.1936 179.69 91.4998 175.743 92.5525 172.02C93.6052 168.297 95.5766 164.679 98.658 163.015C99.7554 162.425 100.974 162.09 101.976 161.306C103.29 160.269 104.081 158.583 105.032 157.106C109.861 149.645 126.034 154.039 133.69 157.068C135.771 157.831 137.699 159.08 139.355 160.739L139.285 160.605C139.228 160.493 139.157 160.381 139.094 160.269C139.932 161.062 140.655 162.006 141.237 163.067C142.354 165.134 142.819 167.544 143.751 169.782C144.874 172.431 151.12 179.824 148.434 182.801C148.245 183.001 148.03 183.163 147.796 183.279C146.787 183.77 145.677 183.899 144.606 183.652L144.721 183.973C145.638 186.599 146.108 189.41 146.105 192.247C146.105 204.505 137.46 214.443 126.787 214.443C124.78 214.446 122.785 214.086 120.873 213.376C120.828 213.66 120.79 213.943 120.745 214.227C120.745 214.339 120.713 214.451 120.7 214.563L121.039 215.115C121.056 215.081 121.075 215.048 121.096 215.018L131.112 231.387C132.644 232.648 141.461 240.109 141.958 245.705C142.481 251.83 143.004 259 143.004 259L143.075 260.537C143.512 260.965 144.024 261.277 144.575 261.45C145.126 261.624 145.702 261.656 146.265 261.544C149.391 260.948 149.391 274.974 149.391 274.974C149.391 274.974 151.471 277.212 152.9 275.273C154.329 273.333 158.106 279.906 158.106 279.906L181.775 281.1L182.317 281.137L183.593 276.519C183.73 276.031 184.027 275.627 184.417 275.394C184.808 275.161 185.261 275.117 185.679 275.273C185.778 275.311 185.874 275.358 185.966 275.414L186.056 275.474L186.222 275.608L186.305 275.698C186.35 275.746 186.393 275.799 186.432 275.855L186.509 275.959L186.547 276.004C186.694 276.242 186.792 276.517 186.832 276.807C186.872 277.098 186.853 277.395 186.777 277.675L185.679 281.637C190.247 282.711 194.917 285.74 191.109 294.082L210.414 289.911L204.168 296.044L171.924 303.826C172.352 304.721 172.071 306.019 170.738 307.847C164.996 315.733 154.533 317.875 150.322 318.427C149.21 321.336 147.821 324.089 146.182 326.634L146.545 334.49C146.545 334.49 157.206 394.372 159.158 397.409C158.173 396.103 157.271 394.714 156.46 393.253C159.554 405.556 163.879 422.395 165.015 424.917C166.84 428.946 168.53 445.248 166.45 446.293C165.812 446.614 163.988 446.457 161.385 446.226V447.576L161.5 498.751C161.5 498.751 160.976 530.139 162.412 533.131C163.847 536.123 164.23 542.398 164.23 542.398C164.23 542.398 169.972 554.775 174.521 559.752C174.552 559.791 174.586 559.826 174.623 559.856L174.763 558.692C174.763 558.692 180.231 566.765 192.327 566.31C192.327 566.31 199.607 571.846 188.812 572.145C178.017 572.443 164.23 571.697 164.23 571.697C164.23 571.697 154.603 554.537 146.539 556.775V569.779H144.07V556.566C142.925 555.685 141.945 554.54 141.189 553.203C140.434 551.865 139.918 550.362 139.674 548.784C139.463 547.158 139.618 545.496 140.123 543.961C140.629 542.426 141.468 541.072 142.558 540.033C143.047 539.515 143.44 538.885 143.711 538.181C143.983 537.477 144.126 536.716 144.134 535.944L144.223 536.033C144.223 535.772 144.28 535.504 144.306 535.228C145.014 528.513 145.901 514.658 142.768 504.406C138.475 490.35 137.173 470.772 140.299 459.118C141.308 455.393 142.137 451.604 142.781 447.77C142.858 447.285 142.928 446.823 142.992 446.39C140.855 446.728 138.739 447.226 136.656 447.882C129.415 450.217 113.574 450.65 100.049 450.523C100.017 450.956 99.9787 451.411 99.934 451.866C99.6929 455.03 99.1886 458.158 98.4284 461.207C96.7313 467.176 95.953 493.491 95.953 493.491C95.953 493.491 93.7647 515.128 94.9577 523.932C95.5957 528.826 96.2337 533.743 96.5974 538.682V538.779C96.5974 538.779 100.183 550.717 102.805 557.2C102.869 557.364 102.939 557.529 103.003 557.685C103.702 557.76 104.39 557.938 105.051 558.215C105.051 558.215 108.566 566.422 112.069 567.78C115.571 569.138 114.41 573.607 106.48 571.966C98.5496 570.324 86.5746 568.981 86.5746 568.981L86.0578 560.61L83.6207 557.044L84.2587 565.392L81.6621 564.796L82.0066 554.641L78.0192 548.807C78.0192 548.807 73.2024 543.793 80.3606 533.93V534.146C80.4372 534.004 80.5074 533.855 80.5903 533.713V533.668C81.777 531.52 82.7212 527.513 80.9922 520.403C77.8661 507.555 76.0479 495.893 76.0479 495.893C76.0479 495.893 69.0683 464.654 77.4578 449.874H77.0878C77.9475 447.794 78.5552 445.585 78.8932 443.309C78.9358 443.04 78.9741 442.764 79.0081 442.48C72.8005 442.063 66.7077 440.749 61.7378 437.914C61.7569 437.884 64.7491 363.752 67.2245 351.949ZM146.035 300.244V300.394L147.311 300.468L146.035 300.244ZM150.411 300.953C150.621 301.008 150.818 301.117 150.986 301.274C151.534 302.182 151.879 303.236 151.987 304.341L153.978 303.818C153.978 303.818 155.375 303.468 157.385 303.072L158.335 301.953C155.72 301.699 153.002 301.326 150.411 300.953Z" fill="url(#paint1_linear_1_390)"/>
<path d="M84.5523 554.746L85.3115 565.318L82.766 564.721L83.1487 553.253L84.5523 554.746Z" fill="#1D2366"/>
<path d="M142.628 504.548C145.697 514.77 144.829 528.565 144.14 535.265C143.885 537.742 143.649 539.249 143.649 539.249C143.649 539.249 148.236 551.47 148.619 551.933C149.002 552.395 162.119 561.759 162.119 561.759L171.286 568.019C171.286 568.019 180.588 563.251 176.129 561.61C175.218 561.182 174.397 560.528 173.724 559.692C169.258 554.731 163.65 542.398 163.65 542.398C163.65 542.398 163.267 536.138 161.863 533.161C160.46 530.184 160.97 498.9 160.97 498.9L160.862 447.904V441.257L143.413 441.406C143.303 443.663 143.051 445.907 142.66 448.121C142.034 451.942 141.222 455.718 140.229 459.432C137.154 471.063 138.43 490.544 142.628 504.548Z" fill="#FFB0B1"/>
<path opacity="0.1" d="M143.649 539.249C143.649 539.249 148.236 551.47 148.619 551.933C149.002 552.395 162.119 561.759 162.119 561.759L171.286 568.019C171.286 568.019 180.588 563.251 176.129 561.61C175.218 561.182 174.397 560.528 173.724 559.692L173.328 562.953L170.272 562.803L144.115 535.28C143.885 537.742 143.649 539.249 143.649 539.249Z" fill="black"/>
<path d="M143.968 535.974L170.272 563.684L173.328 563.833L173.966 558.61C173.966 558.61 179.312 566.653 191.192 566.206C191.192 566.206 198.324 571.719 187.753 572.018C177.181 572.316 163.682 571.57 163.682 571.57C163.682 571.57 154.252 554.41 146.36 556.648V569.608H143.936V556.529C142.809 555.641 141.847 554.496 141.108 553.163C140.369 551.83 139.868 550.335 139.636 548.769C139.426 547.157 139.575 545.508 140.067 543.981C140.56 542.455 141.381 541.103 142.45 540.055C142.927 539.531 143.308 538.899 143.569 538.198C143.83 537.496 143.966 536.739 143.968 535.974Z" fill="#1D2366"/>
<path d="M82.128 520.485C83.825 527.573 82.8999 531.564 81.7388 533.706V533.75C80.2495 536.394 79.2138 539.351 78.6893 542.457L78.5872 543.129L90.5557 563.534L97.0505 566.519C97.0505 566.519 107.494 562.348 105.587 561.154C105.108 560.863 104.362 559.312 103.507 557.17C100.955 550.717 97.4332 538.809 97.4332 538.809V538.712C97.0632 533.795 96.4763 528.893 95.8255 524.014C94.658 515.232 96.8016 493.677 96.8016 493.677C96.8016 493.677 97.5672 467.467 99.226 461.506C99.9749 458.475 100.473 455.367 100.713 452.224C101.057 448.494 101.134 445.42 101.134 445.42C101.134 445.42 94.256 434.228 81.6494 446.315C80.6413 447.279 79.7543 448.404 79.0146 449.658C70.3061 464.147 77.3176 496.065 77.3176 496.065C77.3176 496.065 79.072 507.674 82.128 520.485Z" fill="#FFB0B1"/>
<path opacity="0.1" d="M78.568 543.129L90.5366 563.535L97.0313 566.519C97.0313 566.519 107.475 562.348 105.568 561.154C105.089 560.864 104.343 559.312 103.488 557.17C99.0664 557.126 96.7761 562.05 96.7761 562.05L91.1746 561.005C91.1746 561.005 83.7867 544.024 82.1279 542.987C80.4692 541.95 81.8727 535.235 81.8727 535.235V533.526C81.8281 533.586 81.7898 533.653 81.7387 533.713V533.758C80.2495 536.402 79.2138 539.359 78.6892 542.465L78.568 543.129Z" fill="black"/>
<path d="M96.3934 562.49C96.3934 562.49 99.5833 555.641 105.695 558.17C105.695 558.17 109.134 566.377 112.573 567.705C116.011 569.033 114.863 573.51 107.092 571.876C99.3217 570.242 87.6083 568.892 87.6083 568.892L87.0979 560.543L79.1996 548.777C79.1996 548.777 74.4913 543.785 81.4964 533.959V535.668C81.4964 535.668 80.0928 542.383 81.7516 543.42C83.4103 544.457 90.7727 561.445 90.7727 561.445L96.3934 562.49Z" fill="#1D2366"/>
<path opacity="0.1" d="M143.394 441.391C143.284 443.648 143.032 445.892 142.641 448.106C149.825 446.875 156.492 447.487 160.862 447.89V441.242L143.394 441.391Z" fill="black"/>
<path opacity="0.1" d="M78.3063 451.516C78.3063 451.516 88.514 452.098 100.687 452.217C101.031 448.486 101.108 445.413 101.108 445.413C101.108 445.413 94.2304 434.221 81.6238 446.308C80.6157 447.272 79.7287 448.397 78.9889 449.65C78.7912 450.286 78.5633 450.909 78.3063 451.516Z" fill="black"/>
<path d="M78.3065 450.173C78.3065 450.173 123.017 452.702 136.644 448.233C150.271 443.764 163.777 447.636 165.813 446.599C167.848 445.562 166.195 429.319 164.409 425.298C162.623 421.276 152.823 380.606 152.823 380.606L143.394 323.112L133.46 319.911L132.759 319.68L115.45 314.099L102.767 310.003C102.767 310.003 77.5473 425.148 79.7101 433.639C80.4955 436.89 80.6222 440.311 80.0801 443.629C79.7497 445.896 79.1528 448.097 78.3065 450.173Z" fill="#1D2366"/>
<path d="M176.263 283.793C176.263 283.793 185.195 294.984 178.432 301.222C171.669 307.459 167.223 301.819 167.223 301.819L176.263 283.793Z" fill="#C7DAF5"/>
<path opacity="0.1" d="M176.263 283.793C176.263 283.793 185.195 294.984 178.432 301.222C171.669 307.459 167.223 301.819 167.223 301.819L176.263 283.793Z" fill="black"/>
<path d="M104.1 210.213C104.1 210.213 105.147 211.377 106.722 213.093C108.968 215.548 112.292 219.136 115.24 222.143C119.323 226.299 122.691 229.35 121.485 226.746C120.28 224.143 120.509 219.606 121.109 215.361C121.154 215.077 121.192 214.794 121.237 214.518C121.733 211.4 122.392 208.32 123.208 205.296C123.208 205.296 116.611 195.328 112.962 191.396C111.603 189.904 110.652 189.292 110.595 190.329C110.531 191.725 109.638 194.806 108.528 198.074C108.496 198.178 108.464 198.275 108.426 198.38C107.686 200.618 106.85 202.916 106.116 204.901C104.993 207.945 104.1 210.213 104.1 210.213Z" fill="#FFB0B1"/>
<path opacity="0.1" d="M108.426 198.38C109.046 202.279 110.55 205.912 112.781 208.899C115.012 211.887 117.888 214.118 121.109 215.361C121.616 211.955 122.318 208.593 123.208 205.296C123.208 205.296 110.786 186.532 110.595 190.329C110.55 191.769 109.581 194.963 108.426 198.38Z" fill="black"/>
<path opacity="0.1" d="M122.347 220.375L120.739 217.726C120.739 217.726 119.673 225.321 115.756 221.971C111.839 218.621 111.648 247.182 111.648 247.182L115.852 320.695L146.233 318.569L145.372 283.047L141.933 265.141L133.428 239.109L128.369 230.507L122.347 220.375Z" fill="black"/>
<path d="M111.648 247.637L115.475 314.107L115.877 321.15L132.816 319.964L133.454 319.919L146.214 319.024L145.352 283.495L141.914 265.588L133.409 239.557L128.35 230.954L122.327 220.785L120.72 218.144C120.72 218.144 119.654 225.739 115.737 222.389L115.654 222.322C111.826 219.487 111.648 247.637 111.648 247.637Z" fill="#1D2366"/>
<path d="M141.486 259.366C141.486 259.366 143.011 263.096 146.073 262.492C149.136 261.888 149.129 275.922 149.129 275.922C149.129 275.922 151.164 278.16 152.568 276.22C153.971 274.28 157.672 280.838 157.672 280.838L180.856 282.032C180.856 282.032 170.54 287.546 172.562 304.229C172.562 304.229 137.537 301.692 136.389 297.82C135.24 293.947 141.486 259.366 141.486 259.366Z" fill="white"/>
<path opacity="0.03" d="M141.486 259.366C141.486 259.366 143.011 263.096 146.073 262.492C149.136 261.888 149.129 275.922 149.129 275.922C149.129 275.922 151.164 278.16 152.568 276.22C153.971 274.28 157.672 280.838 157.672 280.838L180.856 282.032C180.856 282.032 170.54 287.546 172.562 304.229C172.562 304.229 137.537 301.692 136.389 297.82C135.24 293.947 141.486 259.366 141.486 259.366Z" fill="black"/>
<path d="M208.864 290.799L202.752 296.902L152.44 309.265L158.68 301.819L208.864 290.799Z" fill="white"/>
<path d="M122.251 222.725C123.087 224.217 125.479 231.857 127.476 238.527C129.141 244.086 130.532 248.973 130.532 248.973C130.532 248.973 133.779 273.698 135.438 278.167C137.097 282.637 136.197 300.065 136.197 300.065L142.379 343.108C142.379 343.108 145.18 365.304 149.506 378.562C153.774 391.611 158.527 397.729 158.674 397.923C156.76 394.894 146.329 335.251 146.329 335.251L142.883 260.03C142.883 260.03 142.379 252.882 141.869 246.772C141.359 240.661 131.023 232.32 131.023 232.32L121.058 215.749C120.056 217.316 120.726 220.046 122.251 222.725Z" fill="white"/>
<path d="M148.236 319.397C148.236 319.397 162.91 318.651 170.017 308.668C177.124 298.685 153.589 304.684 153.589 304.684L147.47 306.325L148.236 319.397Z" fill="#FFB0B1"/>
<path opacity="0.1" d="M79.7099 433.647C80.4953 436.898 80.622 440.318 80.0799 443.637C96.087 444.965 113.211 439.906 113.211 439.906C116.4 443.338 124.803 448.397 124.803 448.397L129.384 381.994C132.312 373.041 133.46 326.134 133.46 326.134C133.46 326.134 133.199 323.679 132.822 320.001C132.822 319.911 132.822 319.814 132.79 319.725C131.648 309.451 129.384 290.165 128.273 287.561C126.742 283.979 132.982 274.452 132.982 274.452L130.143 246.137L129.798 242.72C123.814 239.594 119.227 229.611 119.227 229.611L115.705 222.397C111.877 219.524 111.679 247.674 111.679 247.674L115.507 314.144L102.824 310.048C102.824 310.048 77.5472 425.156 79.7099 433.647Z" fill="black"/>
<path d="M63.282 438.235C80.7309 448.367 112.445 438.981 112.445 438.981C115.635 442.413 124.037 447.472 124.037 447.472L128.624 381.069C131.546 372.116 132.695 325.209 132.695 325.209C132.695 325.209 129.007 290.209 127.476 286.636C127.03 285.591 127.246 284.039 127.776 282.368C130.379 274.413 131.337 265.851 130.57 257.381L129.345 245.212L129.007 241.803C123.017 238.669 118.429 228.686 118.429 228.686L115.24 222.15L109.37 210.108L106.588 204.408L106.116 204.908L102.512 208.728C102.512 208.728 100.981 210.22 98.6838 212.459C93.6884 217.383 85.0564 226.052 80.6033 231.357C76.6861 236.028 75.4484 254.195 75.0911 267.871C74.855 276.877 74.9954 283.935 74.9954 283.935C78.9445 291.537 68.6155 352.576 68.6155 352.576C66.2103 364.371 63.282 438.235 63.282 438.235Z" fill="white"/>
<path opacity="0.03" d="M96.7761 228.537C96.7761 228.537 108.751 255.195 107.36 265.327C105.97 275.459 102.014 286.927 103.922 289.605C104.577 290.62 105.424 291.444 106.397 292.012C107.37 292.58 108.442 292.877 109.529 292.88C111.443 293.03 116.547 297.2 116.547 297.648C116.547 298.096 121.262 298.096 125.479 300.185C129.696 302.274 135.923 303.46 135.923 303.46C135.923 303.46 148.045 303.012 149.174 304.355C150.303 305.698 151.464 313.734 149.046 320.143C146.628 326.552 143.942 331.334 141.914 332.207C139.885 333.08 127.01 328.036 116.566 326.843C106.123 325.649 94.7856 315.972 94.7856 315.972C94.7856 315.972 82.3003 310.749 80.112 301.968C77.9237 293.186 82.7851 244.921 82.7851 244.921C82.7851 244.921 86.4599 222.426 96.7761 228.537Z" fill="black"/>
<path opacity="0.03" d="M98.3073 226.299C98.3073 226.299 110.282 252.964 108.879 263.089C107.475 273.213 103.532 284.688 105.446 287.374C106.099 288.39 106.945 289.215 107.917 289.783C108.889 290.352 109.961 290.648 111.048 290.65C112.962 290.799 118.066 294.969 118.066 295.417C118.066 295.865 122.78 295.865 126.998 297.946C131.215 300.028 137.441 301.222 137.441 301.222C137.441 301.222 149.563 300.774 150.686 302.117C151.809 303.46 152.983 311.503 150.558 317.904C148.134 324.306 145.454 329.096 143.426 329.969C141.397 330.842 128.522 325.798 118.078 324.612C107.635 323.426 96.2976 313.734 96.2976 313.734C96.2976 313.734 83.8186 308.511 81.6559 299.737C79.4931 290.963 84.3291 242.683 84.3291 242.683C84.3291 242.683 87.9911 220.196 98.3073 226.299Z" fill="black"/>
<path d="M97.1525 227.194C97.1525 227.194 109.128 253.859 107.724 263.984C106.32 274.109 102.378 285.584 104.285 288.262C104.938 289.28 105.785 290.107 106.758 290.677C107.731 291.246 108.805 291.544 109.893 291.545C111.807 291.694 116.911 295.865 116.911 296.305C116.911 296.745 121.619 296.753 125.843 298.842C130.066 300.931 136.287 302.117 136.287 302.117C136.287 302.117 148.408 301.669 149.538 303.012C150.667 304.355 151.828 312.398 149.41 318.8C146.992 325.201 144.306 329.991 142.277 330.864C140.248 331.737 127.374 326.693 116.93 325.5C106.486 324.306 95.1493 314.629 95.1493 314.629C95.1493 314.629 82.6639 309.406 80.4756 300.625C78.2873 291.843 83.1169 243.578 83.1169 243.578C83.1169 243.578 86.8427 221.121 97.1525 227.194Z" fill="white"/>
<path opacity="0.1" d="M97.4141 298.715C97.4141 298.715 106.984 296.477 103.654 300.207C100.323 303.938 100.342 307.205 96.2657 307.056C92.189 306.907 97.4141 298.715 97.4141 298.715Z" fill="black"/>
<path opacity="0.1" d="M81.2411 378.98C81.2411 378.98 85.5666 382.405 77.2919 390.298C69.0172 398.192 81.2411 378.98 81.2411 378.98Z" fill="black"/>
<path opacity="0.1" d="M89.4967 407.13C89.4967 407.578 91.0279 423.544 85.2988 427.536C79.5696 431.528 89.4967 407.13 89.4967 407.13Z" fill="black"/>
<path d="M180.461 281.995C185.08 282.181 195.058 283.83 189.884 295.119C185.309 305.109 177.622 298.431 173.296 293.365C174.351 288.642 176.916 284.572 180.461 281.995Z" fill="#FFB0B1"/>
<path opacity="0.1" d="M98.6837 212.914C103.583 216.831 107.692 220.136 108.496 220.822C110.691 222.725 114.876 233.894 117.574 239.594C119.724 244.183 126.71 245.361 129.345 245.652L129.007 242.243C123.016 239.109 118.429 229.126 118.429 229.126L106.588 204.848L102.512 209.183C102.512 209.183 100.98 210.675 98.6837 212.914Z" fill="black"/>
<path d="M98.6837 212.466C103.583 216.383 107.692 219.688 108.496 220.382C110.691 222.277 114.876 233.446 117.574 239.147C119.724 243.735 126.71 244.914 129.345 245.205L129.007 241.795C123.016 238.662 118.429 228.679 118.429 228.679L106.588 204.401L102.512 208.721C102.512 208.721 100.98 210.198 98.6837 212.466Z" fill="#DCE7FF"/>
<path d="M108.113 193.456C108.11 197.934 109.272 202.308 111.443 205.997C114.008 210.359 117.825 213.502 122.201 214.854C126.577 216.207 131.223 215.68 135.296 213.369C139.368 211.058 142.598 207.117 144.398 202.26C146.198 197.403 146.45 191.952 145.107 186.897C143.765 181.841 140.917 177.516 137.081 174.706C133.245 171.896 128.675 170.787 124.2 171.58C119.724 172.374 115.64 175.017 112.689 179.03C109.737 183.044 108.114 188.162 108.113 193.456Z" fill="#FFB0B1"/>
<path opacity="0.1" d="M75.091 267.879C77.6819 266.015 79.7919 263.364 81.1965 260.209C82.262 257.747 82.9701 254.904 84.7884 253.158C86.428 251.591 88.6163 251.211 90.6579 250.51C97.3695 248.189 102.996 241.027 103.207 232.85C103.309 229 102.282 225.157 102.748 221.345C103.012 219.187 103.746 217.145 104.879 215.413C105.441 214.585 106.057 213.809 106.722 213.093C107.616 212.108 108.553 211.153 109.37 210.108C109.884 209.462 110.334 208.748 110.71 207.982C111.013 207.355 111.259 206.692 111.443 206.005C112.719 201.439 111.558 196.022 112.962 191.404L113.038 191.15C113.568 189.509 114.646 187.867 116.145 187.74C117.645 187.614 118.927 189.069 120.356 189.718C123.348 191.076 126.576 188.763 129.071 186.405C131.566 184.047 134.379 181.354 137.55 181.876C139.649 182.227 141.308 183.898 143.241 184.764C143.677 184.961 144.128 185.113 144.587 185.219C142.951 180.447 139.945 176.491 136.086 174.03C132.227 171.569 127.755 170.757 123.44 171.732C119.124 172.708 115.233 175.41 112.436 179.376C109.64 183.342 108.111 188.323 108.113 193.463C108.111 195.015 108.25 196.563 108.528 198.081C108.496 198.186 108.464 198.283 108.426 198.387C107.686 200.626 106.85 202.924 106.116 204.908L102.512 208.728C102.512 208.728 100.98 210.22 98.6837 212.459C93.6883 217.383 85.0564 226.053 80.6032 231.357C76.686 236.043 75.4611 254.203 75.091 267.879Z" fill="black"/>
<path d="M143.464 171.132C142.552 168.961 142.099 166.529 141.008 164.47C139.406 161.485 136.612 159.575 133.741 158.419C126.245 155.397 110.403 151.01 105.67 158.419C104.738 159.911 103.966 161.567 102.677 162.597C101.695 163.38 100.508 163.716 99.4301 164.305C96.4124 165.962 94.4857 169.573 93.4585 173.259C92.4314 176.944 92.1251 180.899 91.3723 184.696C90.409 189.568 88.7183 194.187 87.034 198.775C85.0499 204.192 82.9445 209.81 79.1166 213.637C73.8915 218.86 72.7367 226.254 67.8881 231.984C62.1462 238.788 62.3312 250.017 65.2915 258.933C65.6807 260.104 66.1208 261.328 65.9677 262.574C65.8146 263.82 65.0235 264.954 64.277 265.946L61.1382 270.087C68.5643 272.184 76.9666 267.647 80.4245 259.686C81.4899 257.224 82.1981 254.389 84.0227 252.636C85.6559 251.069 87.8506 250.696 89.8858 249.995C96.5974 247.667 102.224 240.497 102.435 232.32C102.537 228.477 101.51 224.635 101.976 220.83C102.235 218.657 102.971 216.601 104.113 214.861C105.867 212.182 108.515 210.384 109.944 207.4C112.362 202.409 110.525 195.925 112.266 190.568C112.802 188.927 113.874 187.285 115.373 187.158C116.873 187.032 118.155 188.486 119.59 189.136C122.576 190.493 125.804 188.188 128.299 185.823C130.793 183.458 133.607 180.772 136.784 181.301C138.883 181.645 140.536 183.316 142.469 184.189C143.898 184.831 146.794 185.405 148.045 183.995C150.686 181.152 144.568 173.788 143.464 171.132Z" fill="#591D4B"/>
<path opacity="0.1" d="M78.6509 257.225C79.7227 254.762 80.4245 251.927 82.2491 250.181C83.8824 248.615 86.0771 248.234 88.1186 247.533C94.8239 245.212 100.451 238.042 100.668 229.865C100.77 226.023 99.7427 222.173 100.202 218.368C100.469 216.21 101.205 214.167 102.339 212.436C104.1 209.758 106.748 207.96 108.171 204.975C110.588 199.991 108.751 193.508 110.499 188.143C111.029 186.509 112.107 184.868 113.6 184.734C115.093 184.599 116.388 186.069 117.817 186.718C120.803 188.076 124.037 185.763 126.525 183.406C129.013 181.048 131.84 178.355 135.011 178.877C137.11 179.228 138.768 180.899 140.695 181.764C142.124 182.406 145.027 182.988 146.277 181.578C148.906 178.593 142.788 171.244 141.69 168.603C140.778 166.425 140.325 164 139.228 161.94C139.17 161.829 139.106 161.717 139.043 161.605C139.863 162.4 140.572 163.342 141.142 164.395C142.233 166.454 142.686 168.872 143.598 171.058C144.702 173.699 150.82 181.07 148.185 184.032C146.909 185.45 144.038 184.868 142.609 184.226C140.695 183.353 139.024 181.682 136.925 181.339C133.735 180.809 130.927 183.503 128.439 185.86C125.951 188.218 122.697 190.531 119.724 189.173C118.295 188.524 117.045 187.062 115.514 187.196C113.983 187.33 112.962 188.964 112.407 190.606C110.665 195.963 112.502 202.446 110.084 207.437C108.655 210.37 106.008 212.205 104.253 214.898C103.112 216.638 102.375 218.695 102.116 220.867C101.65 224.672 102.677 228.515 102.575 232.357C102.365 240.564 96.7378 247.704 90.0262 250.032C88.0038 250.733 85.7964 251.107 84.1631 252.673C82.3321 254.427 81.6112 257.262 80.5649 259.724C77.107 267.685 68.7047 272.221 61.2786 270.125L62.7586 268.17C69.1959 268.282 75.7098 263.999 78.6509 257.225Z" fill="black"/>
<path opacity="0.1" d="M122.634 223.173C123.469 224.665 125.862 232.305 127.859 238.975C129.728 238.124 131.425 232.7 131.425 232.7L121.46 216.122C120.439 217.763 121.109 220.487 122.634 223.173Z" fill="black"/>
<path d="M122.251 222.725C123.087 224.217 125.479 231.857 127.476 238.527C129.345 237.684 131.042 232.253 131.042 232.253L121.077 215.682C120.056 217.316 120.726 220.046 122.251 222.725Z" fill="#DCE7FF"/>
<path d="M180.193 298.946L185.718 278.57C185.783 278.332 185.808 278.08 185.79 277.831C185.772 277.581 185.712 277.338 185.614 277.115C185.515 276.893 185.38 276.695 185.216 276.534C185.052 276.373 184.863 276.251 184.659 276.175C184.247 276.025 183.802 276.071 183.42 276.303C183.038 276.535 182.749 276.934 182.617 277.414L177.092 297.767L177.641 302.028L180.193 298.946Z" fill="#BE8B87"/>
<path opacity="0.1" d="M185.195 276.78C184.783 276.627 184.336 276.672 183.952 276.904C183.568 277.136 183.278 277.537 183.147 278.018L177.622 298.372L178.036 301.565L177.634 302.057L177.086 297.797L182.643 277.444C182.774 276.964 183.063 276.565 183.445 276.333C183.828 276.101 184.273 276.055 184.684 276.205C185.03 276.336 185.329 276.599 185.533 276.951C185.424 276.883 185.311 276.826 185.195 276.78Z" fill="white"/>
<path d="M180.193 298.946L177.092 297.797L177.545 301.289L177.641 302.057L178.547 300.953L180.193 298.946Z" fill="#EFC8C4"/>
<path d="M178.547 300.953C178.493 300.873 178.425 300.807 178.349 300.759C178.304 300.726 178.252 300.708 178.199 300.708C178.146 300.708 178.094 300.726 178.049 300.759C178.006 300.821 177.969 300.888 177.941 300.961C177.898 301.043 177.841 301.113 177.772 301.166C177.704 301.219 177.626 301.253 177.545 301.266L177.641 302.013L178.547 300.953Z" fill="#727A9C"/>
<path d="M185.75 285.807C185.75 285.807 174.668 285.733 177.277 291.246C179.886 296.76 183.963 297.424 183.963 297.424L185.75 285.807Z" fill="#FFB0B1"/>
<path d="M254.671 38.3643H255.15C274.187 38.3643 291.024 50.1451 300.708 67.5292C310.393 50.1451 327.229 38.3643 346.267 38.3643H346.745C361.032 38.5235 374.689 45.2701 384.746 57.1381C394.804 69.0061 400.45 85.0363 400.457 101.745C400.457 122.494 392.687 151.935 377.535 176.161C348.666 222.322 300.708 262.708 300.708 262.708C300.708 262.708 252.751 222.329 223.888 176.161C208.73 151.935 200.966 122.494 200.966 101.745C200.973 85.0376 206.619 69.0085 216.675 57.1407C226.731 45.273 240.385 38.5254 254.671 38.3643ZM261.517 179.712C263.685 179.703 265.8 178.927 267.584 177.486C269.368 176.045 270.738 174.007 271.514 171.64H282.896C283.645 171.634 284.375 171.355 284.982 170.841C285.589 170.328 286.044 169.605 286.283 168.775L289.78 156.456L300.842 201.663C301.058 202.533 301.509 203.298 302.128 203.843C302.747 204.387 303.5 204.683 304.275 204.684H304.498C305.306 204.639 306.077 204.27 306.681 203.64C307.284 203.01 307.685 202.156 307.815 201.222L319.216 121.032L327.548 168.484C327.739 169.385 328.183 170.186 328.809 170.758C329.434 171.33 330.206 171.64 331 171.64H347.032C347.513 171.663 347.993 171.573 348.443 171.375C348.893 171.176 349.304 170.873 349.651 170.483C349.998 170.094 350.275 169.627 350.464 169.109C350.652 168.592 350.75 168.035 350.75 167.473C350.75 166.91 350.652 166.353 350.464 165.836C350.275 165.318 349.998 164.851 349.651 164.462C349.304 164.073 348.893 163.769 348.443 163.571C347.993 163.372 347.513 163.282 347.032 163.306H333.807L322.004 99.5069C321.811 98.5637 321.343 97.7284 320.681 97.1439C320.019 96.5595 319.203 96.2621 318.375 96.3026C317.546 96.3431 316.755 96.7191 316.137 97.3662C315.519 98.0132 315.112 98.8913 314.986 99.8501L303.343 181.652L293.429 141.206C293.222 140.354 292.786 139.604 292.185 139.066C291.583 138.528 290.849 138.232 290.092 138.222H290.022C289.272 138.222 288.542 138.499 287.934 139.014C287.327 139.528 286.875 140.254 286.641 141.087L280.318 163.328H271.654C271.038 161.139 269.917 159.192 268.415 157.702C266.913 156.211 265.087 155.235 263.14 154.881C261.193 154.527 259.201 154.81 257.382 155.696C255.564 156.583 253.99 158.04 252.835 159.907C251.68 161.773 250.989 163.977 250.837 166.274C250.685 168.572 251.079 170.873 251.975 172.925C252.871 174.977 254.235 176.7 255.915 177.903C257.596 179.106 259.527 179.742 261.498 179.742L261.517 179.712Z" fill="#048ABF"/>
</g>
<defs>
<linearGradient id="paint0_linear_1_390" x1="477.666" y1="578.128" x2="477.666" y2="119.025" gradientUnits="userSpaceOnUse">
<stop stop-color="#808080" stop-opacity="0.25"/>
<stop offset="0.54" stop-color="#808080" stop-opacity="0.12"/>
<stop offset="1" stop-color="#808080" stop-opacity="0.1"/>
</linearGradient>
<linearGradient id="paint1_linear_1_390" x1="135.004" y1="572.324" x2="135.004" y2="153.017" gradientUnits="userSpaceOnUse">
<stop stop-color="#808080" stop-opacity="0.25"/>
<stop offset="0.54" stop-color="#808080" stop-opacity="0.12"/>
<stop offset="1" stop-color="#808080" stop-opacity="0.1"/>
</linearGradient>
<clipPath id="clip0_1_390">
<rect width="705" height="584" fill="white" transform="matrix(-1 0 0 1 705 0)"/>
</clipPath>
</defs>
</svg>
