<svg width="627" height="540" viewBox="0 0 627 540" fill="none" xmlns="http://www.w3.org/2000/svg">
<g clip-path="url(#clip0_224_5802)">
<path d="M0 534.531C0 535.319 0.633408 535.952 1.42216 535.952H625.578C626.367 535.952 627 535.319 627 534.531C627 533.743 626.367 533.11 625.578 533.11H1.42216C0.633399 533.11 0 533.743 0 534.531Z" fill="#3F3C57"/>
<path d="M203.644 57.3884L210.431 88.3412L195.994 131.424L172.734 85.135L175.962 58.2805L203.644 57.3884Z" fill="#FDB4B4"/>
<path d="M211.692 86.738H171.531V135.232H211.692V86.738Z" fill="#048ABF"/>
<path d="M195.177 72.9798C210.325 72.9798 222.605 60.7081 222.605 45.5702C222.605 30.4323 210.325 18.1606 195.177 18.1606C180.03 18.1606 167.75 30.4323 167.75 45.5702C167.75 60.7081 180.03 72.9798 195.177 72.9798Z" fill="#FDB4B4"/>
<path d="M171.303 65.9521C171.303 65.9521 150.859 28.2191 169.292 10.061C187.725 -8.09707 202.522 3.86796 202.522 3.86796L210.972 3.5267C210.972 3.5267 212.734 10.1722 215.575 6.5747C218.417 2.97722 223.552 16.0788 223.552 16.0788C233.083 33.2318 200.044 37.0745 200.044 37.0745C200.044 37.0745 202.429 44.6693 200.004 46.2598C197.58 47.8503 191.101 53.8336 191.101 53.8336L185.301 58.2107L181.855 52.9632C181.855 52.9632 178.255 50.1234 176.437 51.3163C174.618 52.5092 177.12 68.2048 177.12 68.2048L171.303 65.9521Z" fill="#2E2E41"/>
<path d="M138.4 343.547L127.914 499.865L153.693 500.738L187.773 344.857L138.4 343.547Z" fill="#2E2E41"/>
<path d="M200.88 342.674L190.394 498.992L216.173 499.865L250.253 343.984L200.88 342.674Z" fill="#2E2E41"/>
<path d="M132.086 379.261L145.809 209.009L124.764 120.355C122.95 107.177 131.259 94.7072 144.082 91.307L164.675 85.8472L173.79 76.738L194.521 122.491L207.469 76.7729L217.567 84.1122L247.516 97.3167L247.503 97.6259L242.699 204.72L253.422 377.745L252.946 377.752L132.086 379.261Z" fill="#E8E9EA"/>
<path d="M214.517 498.089L221.982 520.357C221.982 520.357 251.183 524.325 251.638 533.359C252.092 542.394 211.951 537.164 188.446 538.345C164.941 539.526 184.507 514.088 184.507 514.088L187.012 499.47L214.517 498.089Z" fill="#2E2E41"/>
<path d="M153.56 496.486L161.025 518.754C161.025 518.754 190.226 522.722 190.681 531.756C191.135 540.791 150.994 535.561 127.489 536.742C103.984 537.922 123.55 512.485 123.55 512.485L126.055 497.867L153.56 496.486Z" fill="#2E2E41"/>
<path d="M117.144 288.842C116.827 284.452 117.568 280.049 119.303 276.003L113.732 230.334L135.555 228.32L138.855 274.863C141.048 278.679 142.295 282.965 142.491 287.361C143.133 298.358 137.979 307.599 130.978 308.008C123.978 308.416 117.784 299.835 117.144 288.842Z" fill="#FDB4B4"/>
<path d="M255.361 295.546C255.092 291.152 255.88 286.758 257.66 282.731L252.588 237.004L274.431 235.228L277.224 281.804C279.375 285.644 280.575 289.943 280.723 294.341C281.245 305.344 275.99 314.529 268.986 314.861C261.981 315.193 255.881 306.545 255.361 295.546Z" fill="#FDB4B4"/>
<path d="M113.643 270.527L113.569 270.133L102.196 209.15L115.634 109.846C116.833 100.98 124.755 94.5936 133.688 95.3073C138.353 95.6806 142.538 97.8917 145.474 101.534C148.41 105.177 149.68 109.735 149.051 114.37L138.937 188.847L145.305 268.507L113.643 270.527Z" fill="#E8E9EA"/>
<path d="M248.621 269.096L225.755 116.562C224.566 112.089 225.262 107.409 227.724 103.431C230.186 99.4537 234.065 96.7417 238.649 95.7943C247.417 93.982 256.076 99.3384 258.364 107.987L280.331 267.181L248.621 269.096Z" fill="#E8E9EA"/>
<path d="M195.192 136.434C196.742 136.434 197.999 135.178 197.999 133.629C197.999 132.079 196.742 130.823 195.192 130.823C193.642 130.823 192.385 132.079 192.385 133.629C192.385 135.178 193.642 136.434 195.192 136.434Z" fill="#D6D7D8"/>
<path d="M195.192 157.675C196.742 157.675 197.999 156.419 197.999 154.87C197.999 153.32 196.742 152.064 195.192 152.064C193.642 152.064 192.385 153.32 192.385 154.87C192.385 156.419 193.642 157.675 195.192 157.675Z" fill="#D6D7D8"/>
<path d="M195.192 178.916C196.742 178.916 197.999 177.66 197.999 176.111C197.999 174.561 196.742 173.305 195.192 173.305C193.642 173.305 192.385 174.561 192.385 176.111C192.385 177.66 193.642 178.916 195.192 178.916Z" fill="#D6D7D8"/>
<path d="M195.192 200.157C196.742 200.157 197.999 198.901 197.999 197.352C197.999 195.802 196.742 194.546 195.192 194.546C193.642 194.546 192.385 195.802 192.385 197.352C192.385 198.901 193.642 200.157 195.192 200.157Z" fill="#D6D7D8"/>
<path d="M195.192 221.398C196.742 221.398 197.999 220.142 197.999 218.593C197.999 217.044 196.742 215.788 195.192 215.788C193.642 215.788 192.385 217.044 192.385 218.593C192.385 220.142 193.642 221.398 195.192 221.398Z" fill="#D6D7D8"/>
<path d="M195.192 242.639C196.742 242.639 197.999 241.383 197.999 239.834C197.999 238.285 196.742 237.029 195.192 237.029C193.642 237.029 192.385 238.285 192.385 239.834C192.385 241.383 193.642 242.639 195.192 242.639Z" fill="#D6D7D8"/>
<path d="M195.192 263.88C196.742 263.88 197.999 262.624 197.999 261.075C197.999 259.526 196.742 258.27 195.192 258.27C193.642 258.27 192.385 259.526 192.385 261.075C192.385 262.624 193.642 263.88 195.192 263.88Z" fill="#D6D7D8"/>
<path d="M195.192 285.122C196.742 285.122 197.999 283.866 197.999 282.316C197.999 280.767 196.742 279.511 195.192 279.511C193.642 279.511 192.385 280.767 192.385 282.316C192.385 283.866 193.642 285.122 195.192 285.122Z" fill="#D6D7D8"/>
<path d="M195.195 301.553L142.079 294.479L141.057 294.343L113.91 231.79L97.7438 194.548H139.853L195.195 301.553Z" fill="#048ABF"/>
<path d="M408.162 64.1939L441.932 45.7058V98.5289H402.876L408.162 64.1939Z" fill="#2E2E41"/>
<path d="M449.172 75.9708L452.289 101.904L429.827 146.605L415.885 105L422.44 75.1094L449.172 75.9708Z" fill="#FDB4B4"/>
<path d="M453.45 103.452H414.667V150.282H453.45V103.452Z" fill="#048ABF"/>
<path d="M485.444 351.449L495.571 502.403L470.677 503.246L437.766 352.714L485.444 351.449Z" fill="#2E2E41"/>
<path d="M425.108 350.606L435.235 501.56L410.341 502.403L377.43 351.871L425.108 350.606Z" fill="#2E2E41"/>
<path d="M511.745 383.465L511.152 383.464L352.566 382.946L352.708 382.385L393.48 220.949L383.267 139.479C381.332 124.041 389.602 109.449 403.845 103.169L408.987 100.902L418.756 93.803L431.252 137.933L451.264 93.7686L460.08 102.577L479.961 107.849C492.354 111.134 500.382 123.183 498.636 135.876L498.615 135.964L468.253 222.543L511.745 383.465Z" fill="#E8E9EA"/>
<path d="M411.939 500.688L438.501 502.022L440.92 516.138C440.92 516.138 459.815 540.703 437.116 539.562C414.418 538.422 375.654 543.473 376.093 534.748C376.531 526.024 404.731 522.192 404.731 522.192L411.939 500.688Z" fill="#2E2E41"/>
<path d="M470.805 499.139L497.366 500.474L499.785 514.59C499.785 514.59 518.68 539.154 495.981 538.014C473.283 536.874 434.519 541.925 434.958 533.2C435.397 524.475 463.597 520.644 463.597 520.644L470.805 499.139Z" fill="#2E2E41"/>
<path d="M495.128 297.073C494.51 307.689 488.528 315.975 481.768 315.581C475.008 315.187 470.031 306.262 470.65 295.643C470.84 291.397 472.044 287.259 474.162 283.574L477.349 238.628L498.423 240.572L493.043 284.675C494.719 288.582 495.434 292.833 495.128 297.073Z" fill="#FDB4B4"/>
<path d="M386.834 293.037C385.99 303.637 379.833 311.794 373.082 311.256C366.332 310.718 361.546 301.69 362.392 291.086C362.672 286.845 363.963 282.734 366.159 279.094L370.303 234.226L391.331 236.619L385.013 280.597C386.605 284.538 387.23 288.804 386.834 293.037Z" fill="#FDB4B4"/>
<path d="M498.522 279.403L467.916 277.45L467.953 276.992L474.067 200.509L464.301 128.59C463.692 124.11 464.92 119.704 467.757 116.183C470.595 112.662 474.641 110.524 479.151 110.164C487.785 109.483 495.441 115.647 496.601 124.217L509.578 220.116L509.565 220.187L498.522 279.403Z" fill="#E8E9EA"/>
<path d="M391.929 276.473L361.275 274.621L361.342 274.137L382.48 120.926C384.704 112.511 393.076 107.335 401.548 109.086C405.979 110.002 409.729 112.623 412.108 116.468C414.488 120.313 415.161 124.837 414.002 129.207L391.929 276.473Z" fill="#E8E9EA"/>
<path d="M430.601 151.443C432.099 151.443 433.312 150.23 433.312 148.734C433.312 147.237 432.099 146.024 430.601 146.024C429.104 146.024 427.891 147.237 427.891 148.734C427.891 150.23 429.104 151.443 430.601 151.443Z" fill="#D6D7D8"/>
<path d="M430.601 171.955C432.099 171.955 433.312 170.742 433.312 169.246C433.312 167.75 432.099 166.537 430.601 166.537C429.104 166.537 427.891 167.75 427.891 169.246C427.891 170.742 429.104 171.955 430.601 171.955Z" fill="#D6D7D8"/>
<path d="M430.601 192.467C432.099 192.467 433.312 191.254 433.312 189.758C433.312 188.262 432.099 187.049 430.601 187.049C429.104 187.049 427.891 188.262 427.891 189.758C427.891 191.254 429.104 192.467 430.601 192.467Z" fill="#D6D7D8"/>
<path d="M430.601 212.979C432.099 212.979 433.312 211.766 433.312 210.27C433.312 208.774 432.099 207.561 430.601 207.561C429.104 207.561 427.891 208.774 427.891 210.27C427.891 211.766 429.104 212.979 430.601 212.979Z" fill="#D6D7D8"/>
<path d="M430.601 233.491C432.099 233.491 433.312 232.278 433.312 230.782C433.312 229.286 432.099 228.073 430.601 228.073C429.104 228.073 427.891 229.286 427.891 230.782C427.891 232.278 429.104 233.491 430.601 233.491Z" fill="#D6D7D8"/>
<path d="M430.601 254.004C432.099 254.004 433.312 252.791 433.312 251.294C433.312 249.798 432.099 248.585 430.601 248.585C429.104 248.585 427.891 249.798 427.891 251.294C427.891 252.791 429.104 254.004 430.601 254.004Z" fill="#D6D7D8"/>
<path d="M430.601 274.516C432.099 274.516 433.312 273.303 433.312 271.807C433.312 270.31 432.099 269.097 430.601 269.097C429.104 269.097 427.891 270.31 427.891 271.807C427.891 273.303 429.104 274.516 430.601 274.516Z" fill="#D6D7D8"/>
<path d="M430.601 295.028C432.099 295.028 433.312 293.815 433.312 292.319C433.312 290.823 432.099 289.61 430.601 289.61C429.104 289.61 427.891 290.823 427.891 292.319C427.891 293.815 429.104 295.028 430.601 295.028Z" fill="#D6D7D8"/>
<path d="M434.717 89.2059C448.721 89.2059 460.073 77.8607 460.073 63.8658C460.073 49.8708 448.721 38.5256 434.717 38.5256C420.713 38.5256 409.36 49.8708 409.36 63.8658C409.36 77.8607 420.713 89.2059 434.717 89.2059Z" fill="#FDB4B4"/>
<path d="M448.005 34.2843C449.22 36.7539 447.293 39.8387 444.743 40.877C442.193 41.9153 439.312 41.4946 436.592 41.0624C433.873 40.6302 430.988 40.2204 428.445 41.277C425.155 42.6442 423.301 46.0739 421.703 49.2564C418.719 55.1978 415.736 61.1392 412.753 67.0805C411.295 69.9834 409.805 73.0167 409.777 76.2644C409.725 82.2257 414.457 86.9898 417.003 92.3812C420.103 98.9454 419.848 106.99 416.337 113.344C412.827 119.699 406.151 124.201 398.941 125.077C397.044 125.307 395.036 125.282 393.33 124.421C391.625 123.56 390.323 121.679 390.639 119.795C391.257 116.111 396.889 115.25 397.924 111.661C398.464 109.787 397.507 107.786 396.218 106.323C394.929 104.859 393.298 103.718 392.068 102.204C389.233 98.7132 389.044 93.3246 391.628 89.6442C393.147 87.4812 395.496 85.8741 396.478 83.4206C397.314 81.3292 397.01 78.9784 396.694 76.7485C396.286 73.8831 395.879 71.0177 395.472 68.1524C394.997 64.8093 394.529 61.3464 395.468 58.1027C397.62 50.6696 406.018 47.1786 410.943 41.2079C413.232 38.4334 414.771 35.0967 417.119 32.3721C421.06 27.7999 427.263 25.2777 433.278 25.802C439.293 26.3263 444.966 29.8837 448.055 35.0686" fill="#2E2E41"/>
<path d="M444.002 34.7529C442.763 35.1957 442.304 36.8081 442.66 38.0737C443.017 39.3393 443.95 40.3449 444.805 41.3445C454.472 52.6497 456.718 69.7501 450.3 83.166C448.593 86.7345 446.319 90.0929 445.398 93.9397C444.728 96.7388 444.764 99.8091 443.21 102.232C441.628 104.699 438.493 106.352 438.183 109.266C437.984 111.136 439.125 112.952 440.653 114.048C442.182 115.144 444.05 115.646 445.886 116.055C450.66 117.118 455.54 117.698 460.43 117.784C462.024 117.812 463.669 117.778 465.131 117.143C466.594 116.508 467.842 115.132 467.859 113.538C467.872 112.286 467.149 111.131 467.057 109.882C466.781 106.14 471.819 104.149 472.801 100.527C473.447 98.1461 472.175 95.6958 470.82 93.6335C469.466 91.5712 467.92 89.4056 467.953 86.9388C467.985 84.5774 469.468 82.4977 470.044 80.2074C470.842 77.0393 469.862 73.7256 468.891 70.6065C468.065 67.9547 467.239 65.3029 466.414 62.6511C465.536 59.8322 464.658 57.0133 463.78 54.1943C462.247 49.273 460.639 44.2091 457.322 40.262C454.005 36.3148 448.51 33.7278 443.611 35.3393" fill="#2E2E41"/>
<path d="M461.28 132.946L459.543 132.44C463.163 120.033 455.356 96.8802 455.277 96.6479L456.991 96.064C457.322 97.0353 465.06 119.996 461.28 132.946Z" fill="#3F3C57"/>
<path d="M460.412 147.197C464.588 147.197 467.974 143.813 467.974 139.64C467.974 135.466 464.588 132.083 460.412 132.083C456.235 132.083 452.85 135.466 452.85 139.64C452.85 143.813 456.235 147.197 460.412 147.197Z" fill="#3F3C57"/>
<path d="M410.725 166.394H406.139C405.638 166.394 405.234 165.989 405.234 165.49C405.234 164.99 405.638 164.585 406.139 164.585H410.725C411.989 164.585 413.176 164.093 414.069 163.199C414.961 162.305 415.451 161.118 415.449 159.855L415.393 131.626C415.393 125.493 410.402 120.506 404.267 120.506C398.133 120.506 393.141 125.493 393.141 131.624L393.197 158.047C393.202 160.625 395.305 162.738 397.884 162.758L401.032 162.782C401.532 162.785 401.934 163.193 401.93 163.693C401.927 164.19 401.522 164.591 401.025 164.591H401.018L397.87 164.567C394.302 164.539 391.393 161.616 391.386 158.05L391.331 131.626C391.331 124.496 397.134 118.697 404.267 118.697C411.4 118.697 417.203 124.496 417.203 131.624L417.259 159.852C417.263 161.598 416.585 163.241 415.35 164.477C414.116 165.713 412.472 166.394 410.725 166.394Z" fill="#3F3C57"/>
<path d="M401.025 166.892C402.797 166.892 404.234 165.457 404.234 163.686C404.234 161.915 402.797 160.48 401.025 160.48C399.253 160.48 397.817 161.915 397.817 163.686C397.817 165.457 399.253 166.892 401.025 166.892Z" fill="#3F3C57"/>
<path d="M406.139 168.696C407.91 168.696 409.347 167.26 409.347 165.49C409.347 163.719 407.91 162.283 406.139 162.283C404.367 162.283 402.93 163.719 402.93 165.49C402.93 167.26 404.367 168.696 406.139 168.696Z" fill="#3F3C57"/>
<path d="M220.928 119.387L219.19 118.88C222.811 106.474 215.092 82.9621 215.013 82.7297L217.185 84.3662C217.517 85.3375 224.708 106.437 220.928 119.387Z" fill="#3F3C57"/>
<path d="M159.838 121.591L161.576 121.085C157.955 108.678 165.762 85.5251 165.841 85.2927L163.982 86.5372C163.65 87.5085 156.058 108.641 159.838 121.591Z" fill="#3F3C57"/>
<path d="M220.059 133.637C224.236 133.637 227.621 130.254 227.621 126.08C227.621 121.907 224.236 118.523 220.059 118.523C215.883 118.523 212.497 121.907 212.497 126.08C212.497 130.254 215.883 133.637 220.059 133.637Z" fill="#3F3C57"/>
<path d="M167.9 168.064H163.314C162.813 168.064 162.408 167.659 162.408 167.159C162.408 166.66 162.813 166.255 163.314 166.255H167.9C169.164 166.255 170.351 165.763 171.244 164.869C172.136 163.975 172.626 162.788 172.624 161.525L172.568 133.296C172.568 127.163 167.577 122.176 161.442 122.176C155.308 122.176 150.316 127.163 150.316 133.294L150.371 159.717C150.377 162.295 152.48 164.408 155.059 164.428L158.207 164.451C158.706 164.455 159.109 164.863 159.105 165.363C159.102 165.86 158.697 166.261 158.2 166.261H158.193L155.045 166.237C151.477 166.209 148.568 163.286 148.561 159.72L148.505 133.296C148.505 126.166 154.309 120.366 161.442 120.366C168.575 120.366 174.378 126.166 174.378 133.294L174.434 161.522C174.437 163.268 173.759 164.911 172.525 166.147C171.29 167.383 169.647 168.064 167.9 168.064Z" fill="#3F3C57"/>
<path d="M158.2 168.562C159.972 168.562 161.408 167.127 161.408 165.356C161.408 163.585 159.972 162.15 158.2 162.15C156.428 162.15 154.992 163.585 154.992 165.356C154.992 167.127 156.428 168.562 158.2 168.562Z" fill="#3F3C57"/>
<path d="M163.313 170.366C165.085 170.366 166.522 168.93 166.522 167.16C166.522 165.389 165.085 163.953 163.313 163.953C161.541 163.953 160.105 165.389 160.105 167.16C160.105 168.93 161.541 170.366 163.313 170.366Z" fill="#3F3C57"/>
</g>
<defs>
<clipPath id="clip0_224_5802">
<rect width="627" height="540" fill="white"/>
</clipPath>
</defs>
</svg>
