<svg width="540" height="634" viewBox="0 0 540 634" fill="none" xmlns="http://www.w3.org/2000/svg">
<g clip-path="url(#clip0_86_2536)">
<path d="M468.24 614.97C470.306 615.099 471.448 612.533 469.885 611.037L469.73 610.419C469.75 610.369 469.771 610.32 469.791 610.27C471.881 605.288 478.961 605.323 481.033 610.312C482.871 614.74 485.212 619.176 485.789 623.858C486.047 625.925 485.931 628.03 485.472 630.058C489.78 620.648 492.047 610.372 492.047 600.038C492.047 597.441 491.905 594.845 491.615 592.255C491.376 590.136 491.046 588.031 490.62 585.944C488.314 574.667 483.321 563.926 476.12 554.955C472.658 553.062 469.771 550.104 468.027 546.558C467.4 545.279 466.909 543.904 466.677 542.502C467.071 542.554 468.162 536.553 467.865 536.185C468.414 535.352 469.397 534.938 469.997 534.125C472.979 530.081 477.088 530.787 479.233 536.282C483.815 538.595 483.859 542.43 481.048 546.119C479.259 548.466 479.013 551.641 477.444 554.154C477.605 554.36 477.773 554.561 477.935 554.767C480.896 558.565 483.457 562.647 485.616 566.936C485.006 562.17 485.906 556.428 487.442 552.726C489.19 548.509 492.467 544.957 495.353 541.311C498.819 536.932 505.926 538.843 506.537 544.395C506.542 544.448 506.548 544.502 506.554 544.556C506.125 544.798 505.705 545.055 505.295 545.326C502.956 546.873 503.764 550.5 506.536 550.928L506.599 550.937C506.444 552.481 506.179 554.012 505.792 555.517C509.494 569.832 501.502 575.046 490.09 575.281C489.838 575.41 489.593 575.539 489.341 575.662C490.497 578.917 491.421 582.256 492.105 585.641C492.719 588.631 493.145 591.654 493.384 594.69C493.681 598.52 493.656 602.369 493.333 606.193L493.352 606.057C494.172 601.846 496.459 597.913 499.779 595.187C504.724 591.124 511.711 589.628 517.047 586.363C519.615 584.791 522.906 586.822 522.458 589.8L522.436 589.942C521.642 590.265 520.867 590.64 520.117 591.06C519.689 591.302 519.269 591.558 518.859 591.83C516.519 593.377 517.328 597.004 520.1 597.431L520.163 597.441C520.208 597.448 520.247 597.454 520.292 597.461C518.929 600.696 517.03 603.7 514.653 606.29C512.339 618.787 502.397 619.973 491.763 616.333H491.757C490.594 621.397 488.895 626.345 486.712 631.059H468.692C468.627 630.859 468.569 630.653 468.511 630.452C470.178 630.556 471.857 630.459 473.497 630.155C472.16 628.515 470.823 626.861 469.486 625.221C469.454 625.188 469.428 625.156 469.402 625.124C468.724 624.284 468.04 623.451 467.361 622.611L467.361 622.61C467.319 620.033 467.628 617.463 468.24 614.97Z" fill="#F2F2F2"/>
<path d="M77.5914 614.97C75.5255 615.099 74.3837 612.533 75.9467 611.037L76.1022 610.419C76.0817 610.369 76.0612 610.32 76.0404 610.27C73.9512 605.288 66.8705 605.323 64.799 610.312C62.9605 614.74 60.6196 619.176 60.0433 623.858C59.7849 625.925 59.9011 628.03 60.3597 630.058C56.0517 620.648 53.7846 610.372 53.7846 600.038C53.7846 597.441 53.9267 594.845 54.2173 592.255C54.4563 590.136 54.7857 588.031 55.212 585.944C57.5178 574.667 62.5106 563.926 69.7122 554.955C73.1741 553.062 76.0612 550.104 77.8051 546.558C78.4316 545.279 78.9225 543.904 79.155 542.502C78.761 542.554 77.6695 536.553 77.9666 536.185C77.4176 535.352 76.4348 534.938 75.8352 534.125C72.8529 530.081 68.744 530.787 66.599 536.282C62.0167 538.595 61.9724 542.43 64.784 546.119C66.5728 548.466 66.8186 551.641 68.3881 554.154C68.2266 554.36 68.0587 554.561 67.8972 554.767C64.9361 558.565 62.3751 562.647 60.2162 566.936C60.8263 562.17 59.9255 556.428 58.3897 552.726C56.6416 548.509 53.3648 544.957 50.4793 541.311C47.0133 536.932 39.9059 538.843 39.2953 544.395C39.2894 544.448 39.2836 544.502 39.278 544.556C39.7066 544.798 40.1265 545.055 40.5366 545.326C42.8761 546.873 42.0676 550.5 39.2955 550.928L39.2328 550.937C39.3878 552.481 39.6526 554.012 40.0401 555.517C36.3383 569.832 44.3302 575.046 55.7416 575.281C55.9935 575.41 56.239 575.539 56.4909 575.662C55.3347 578.917 54.4111 582.256 53.7265 585.641C53.1129 588.631 52.6866 591.654 52.4476 594.69C52.1505 598.52 52.1763 602.369 52.4993 606.193L52.4799 606.057C51.6597 601.846 49.3732 597.913 46.0533 595.187C41.1077 591.124 34.1205 589.628 28.785 586.363C26.2167 584.791 22.9256 586.822 23.3738 589.8L23.3957 589.942C24.1901 590.265 24.9651 590.64 25.7144 591.06C26.143 591.302 26.5628 591.558 26.973 591.83C29.3125 593.377 28.504 597.004 25.7319 597.431L25.6691 597.441C25.6239 597.448 25.5851 597.454 25.54 597.461C26.9028 600.696 28.8017 603.7 31.1785 606.29C33.4932 618.787 43.4346 619.973 54.0688 616.333H54.0752C55.2378 621.397 56.9365 626.345 59.1196 631.059H77.1398C77.2045 630.859 77.2626 630.653 77.3207 630.452C75.6543 630.556 73.975 630.459 72.3344 630.155C73.6714 628.515 75.0084 626.861 76.3454 625.221C76.3777 625.188 76.4036 625.156 76.4294 625.124C77.1075 624.284 77.7922 623.451 78.4704 622.611L78.4707 622.61C78.5132 620.033 78.2036 617.463 77.5914 614.97Z" fill="#F2F2F2"/>
<path d="M0 632.467C0 633.127 0.53003 633.657 1.19006 633.657H538.48C539.14 633.657 539.67 633.127 539.67 632.467C539.67 631.807 539.14 631.277 538.48 631.277H1.19006C0.53003 631.277 0 631.807 0 632.467Z" fill="#CCCCCC"/>
<path d="M387.371 609.577L397.985 609.487L402.683 567.595L387.019 567.727L387.371 609.577Z" fill="#A0616A"/>
<path d="M419.288 622.569L402.337 611.071L402.273 603.476L398.627 603.72L387.328 604.499L384.558 604.683L382.547 631.527L390.51 631.455L391.867 623.928L395.561 631.417L416.663 631.24C419.285 631.216 421.39 629.066 421.367 626.454C421.354 624.896 420.578 623.445 419.288 622.569Z" fill="#2F2E41"/>
<path d="M333.371 609.577L343.985 609.487L348.683 567.595L333.019 567.727L333.371 609.577Z" fill="#A0616A"/>
<path d="M365.288 622.569L348.337 611.071L348.273 603.476L344.627 603.72L333.328 604.499L330.558 604.683L328.547 631.527L336.51 631.455L337.867 623.928L341.561 631.417L362.663 631.24C365.285 631.216 367.39 629.066 367.367 626.454C367.354 624.896 366.578 623.445 365.288 622.569Z" fill="#2F2E41"/>
<path d="M417.073 51.7796C413.969 57.0016 415.685 63.7516 420.907 66.8559C423.3 68.2783 426.012 68.6776 428.548 68.2021L428.558 68.2132L442.194 83.1514L458.214 77.3458L437.197 54.3933L437.123 54.4714C436.393 51.831 434.69 49.4553 432.149 47.9449C426.927 44.8406 420.177 46.5574 417.073 51.7796Z" fill="#A0616A"/>
<path d="M429.019 270.881L385.998 272.239L345.241 281.296C345.241 281.296 349.317 286.278 335.731 299.863C335.731 299.863 317.617 331.563 330.297 362.358L333.85 442.898C333.85 442.898 336.881 449.277 334.15 449.688C331.418 450.099 331.614 454.875 334.516 457.987C337.418 461.099 334.784 464.072 334.784 464.072C340.375 467.799 336.251 477.837 335.731 485.534C335.731 485.534 319.887 572.366 331.992 600.002L347.992 601.002L375.066 486.537L388.262 363.263L394.602 484.629C394.602 484.629 370.348 567.932 385.664 601.002L402.992 600.002L432.642 484.629C432.642 484.629 437.633 432.23 440.905 386.916C441.144 383.602 439.767 376.124 441.592 377.112C443.418 378.099 438.813 370.221 442.116 369.16C445.418 368.099 439.863 359.899 442.64 360.499C445.418 361.099 440.86 295.294 440.418 289.099C438.606 263.739 429.019 270.881 429.019 270.881Z" fill="#2F2E41"/>
<path d="M406.473 163.849C401.898 163.849 397.486 162.076 394.094 158.754C389.542 154.298 387.739 147.946 389.27 141.763C391.033 134.642 396.868 129.4 404.136 128.408L464.363 120.183L433.424 76.6865L450.827 67.854L495.968 119.681C499.125 123.306 500.175 128.216 498.776 132.816C497.377 137.416 493.772 140.91 489.131 142.164L411.183 163.219C409.618 163.642 408.035 163.849 406.473 163.849Z" fill="#E6E6E6"/>
<path d="M443.993 289.002L334.993 294.002C331.999 289.456 332.81 282.62 337.002 274.06C352.832 241.74 340.81 180.597 332.722 148.76C330.453 139.827 336.545 130.947 345.715 130.03L355.993 129.002L365.493 100.002H398.764L412.567 115.771L435.993 130.002C431.729 173.922 413.561 235.94 439.443 267.042C445.104 273.844 446.709 281.2 443.993 289.002Z" fill="#E6E6E6"/>
<path d="M380.095 95.8062C377.572 96.7388 374.992 97.6147 372.307 98.269C368.819 99.1192 366.849 99.5134 363.482 98.2065C363.364 98.1606 363.251 98.1153 363.144 98.0706C350.568 92.8247 341.649 80.3137 341.374 65.6372C341.357 65.3993 341.357 65.1492 341.357 64.9052C341.357 63.7219 341.408 62.5445 341.525 61.3856C341.677 59.7752 341.929 58.1953 342.288 56.652L342.255 56.6459C339.528 53.8582 338.479 50.0396 338.827 46.2028C339.27 41.1886 342.092 36.1379 346.624 33.2953C349.996 31.1847 353.838 29.7756 357.961 29.2937C359.033 29.1717 360.115 29.1046 361.22 29.1046H371.452C373.623 28.6044 375.782 28.2567 377.875 28.092H377.892C398.484 26.3841 414.723 40.0357 413.209 56.6459C413.198 56.6642 413.181 56.6825 413.169 56.7008C412.732 57.4145 412.345 58.0916 412.003 58.7382C411.672 59.3421 411.391 59.9216 411.15 60.4706C409.271 64.7161 418.201 130.586 414.998 131.586C413.175 132.154 405.827 83.138 407.145 92.4587C408.805 104.152 389.582 92.2994 380.095 95.8062Z" fill="#2F2E41"/>
<path d="M380.367 91.2412C393.743 91.2412 404.587 80.3973 404.587 67.0206C404.587 53.644 393.743 42.8 380.367 42.8C366.99 42.8 356.146 53.644 356.146 67.0206C356.146 80.3973 366.99 91.2412 380.367 91.2412Z" fill="#A0616A"/>
<path d="M401.429 56.7784C401.025 56.9915 400.627 57.1879 400.223 57.3842C399.802 57.5861 399.381 57.7881 398.955 57.9788C390.849 61.653 384.247 62.0625 380.242 56.7784C380.13 54.0129 379.513 51.2643 378.396 48.712C378.604 51.5391 377.83 54.4224 376.259 56.7784H368.193C359.885 62.2925 355.622 67.3579 361.388 85.4596C361.764 86.6488 364.339 128.899 365.074 132.147C352.497 127.323 341.649 76.103 341.374 62.6066C341.357 62.3879 341.357 62.1579 341.357 61.9335C341.357 60.8453 341.408 59.7626 341.525 58.6968C341.677 57.2159 341.929 55.7631 342.288 54.3439L342.255 54.3383C339.528 51.7747 338.479 48.2632 338.827 44.7349C340.925 41.9862 343.533 39.6415 346.523 37.8352C349.199 36.5338 352.021 35.4792 354.949 34.6715C355.022 34.6547 355.083 34.6378 355.156 34.621C356.043 34.3798 356.951 34.161 357.86 33.9703C359.717 33.5832 361.602 33.2915 363.531 33.1121C363.671 33.1064 363.806 33.0952 363.93 33.0952C364.72 33.0952 365.455 33.314 366.095 33.6898C366.1 33.6898 366.1 33.6954 366.112 33.6954C366.577 33.9703 366.992 34.3349 367.318 34.7724C367.873 35.4792 368.193 36.3655 368.193 37.3304H377.179C377.51 37.3304 377.841 37.3416 378.172 37.3584C390.687 37.8576 400.744 43.2091 401.39 55.5107C401.418 55.937 401.429 56.3521 401.429 56.7784Z" fill="#2F2E41"/>
<path d="M348.3 57.7521C357.112 57.7521 364.257 50.6081 364.257 41.7954C364.257 32.9828 357.112 25.8387 348.3 25.8387C339.487 25.8387 332.343 32.9828 332.343 41.7954C332.343 50.6081 339.487 57.7521 348.3 57.7521Z" fill="#2F2E41"/>
<path d="M370.207 34.415C368.394 43.0392 359.45 48.1971 350.894 46.0872C342.337 43.9773 337.111 35.3306 339.221 26.7742C341.331 18.2179 351.716 20.6846 358.534 15.102C368.181 7.20465 372.651 22.7846 370.207 34.415Z" fill="#2F2E41"/>
<path d="M399.567 217.246C398.313 211.302 392.478 207.499 386.534 208.753C383.81 209.327 381.545 210.87 380.001 212.938L379.986 212.937L359.837 211.184L351.984 226.306L382.993 228.954L382.994 228.847C385.319 230.295 388.181 230.889 391.074 230.279C397.018 229.026 400.82 223.19 399.567 217.246Z" fill="#A0616A"/>
<path d="M307.256 230.266C301.497 230.266 296.227 227.368 293.14 222.499C290.035 217.602 289.678 211.555 292.182 206.326L325.092 137.629C327.844 131.885 333.275 128.13 339.622 127.587C345.958 127.042 351.96 129.82 355.649 135.014C359.896 140.994 360.063 148.836 356.075 154.993L323.025 206.009L376.175 210.929L371.519 229.882L307.359 230.265L307.256 230.266Z" fill="#E6E6E6"/>
<path d="M431.005 75.9492C431.004 75.9297 431.006 75.9116 431.008 75.8962C431.045 75.6373 431.324 75.5884 431.416 75.5722C431.903 75.4867 434.61 75.5509 434.983 76.2492C435.097 76.463 435.79 76.4056 436.296 76.3637C436.651 76.3343 437.018 76.3038 437.338 76.3304C445.51 77.0075 451.804 76.887 455.539 75.9824C458.367 75.2973 460.733 73.5401 462.203 71.0346C463.668 68.5367 464.059 65.6294 463.267 62.8354L461.034 54.837C460.262 52.0741 458.453 49.7924 455.938 48.4123C453.407 47.0229 450.486 46.7213 447.715 47.5626C442.541 49.133 435.063 53.8251 429.7 57.4845C429.481 57.6342 429.171 57.7952 428.871 57.9509C428.615 58.0838 428.252 58.272 428.082 58.3965C428.119 58.4811 428.102 58.5571 428.095 58.5871C428.037 58.8211 427.809 58.8611 427.52 58.9113C427.341 58.9426 426.921 59.0158 426.851 59.1328C426.841 59.15 426.85 59.1887 426.858 59.2097C426.941 59.4576 426.829 59.5874 426.756 59.6418C426.54 59.8043 426.332 59.6634 425.954 59.407C425.665 59.2116 424.989 58.7536 424.777 58.8946C424.723 58.9311 424.466 59.1913 424.781 60.7422C424.871 61.1837 424.785 61.5789 424.53 61.8844C423.916 62.6231 422.51 62.6076 422.451 62.6067L418.665 62.255C411.678 61.6038 404.879 64.13 400.013 69.186L399.955 69.2459L396.311 70.185L399.093 80.9796L402.837 80.0146L402.932 80.0577C408.62 82.6485 415.32 81.4597 423.417 76.4233L425.716 74.9934L425.799 74.9932C427.313 74.9905 429.184 75.0775 429.5 75.5059C429.55 75.5737 429.577 75.6518 429.578 75.7319C429.808 75.8549 430.543 75.9486 431.005 75.9492Z" fill="#048ABF"/>
<path d="M393.504 82.7995C393.615 83.23 394.055 83.4899 394.486 83.3789L399.742 82.0241C400.173 81.9132 400.432 81.4729 400.321 81.0423L397.209 68.9683C397.098 68.5378 396.658 68.2779 396.228 68.3889L390.971 69.7437C390.541 69.8546 390.281 70.295 390.392 70.7255L393.504 82.7995Z" fill="#3F3D56"/>
<path d="M393.208 80.0579C394.865 80.0579 396.208 78.7147 396.208 77.0579C396.208 75.401 394.865 74.0579 393.208 74.0579C391.551 74.0579 390.208 75.401 390.208 77.0579C390.208 78.7147 391.551 80.0579 393.208 80.0579Z" fill="#3F3D56"/>
<path d="M222.691 617.193L208.95 617.191L202.413 564.19L222.693 564.192L222.691 617.193Z" fill="#FFB6B6"/>
<path d="M223.174 631.527L180.919 631.525V630.991C180.92 621.908 188.283 614.545 197.366 614.544H197.367L205.085 608.689L219.486 614.545L223.175 614.545L223.174 631.527Z" fill="#2F2E41"/>
<path d="M167.691 617.193L153.95 617.191L147.413 564.19L167.693 564.192L167.691 617.193Z" fill="#FFB6B6"/>
<path d="M168.174 631.527L125.919 631.525V630.991C125.92 621.908 133.283 614.545 142.366 614.544H142.367L150.085 608.689L164.486 614.545L168.175 614.545L168.174 631.527Z" fill="#2F2E41"/>
<path d="M166.348 41.6321C170.567 46.2615 170.234 53.4349 165.605 57.6542C163.483 59.5876 160.828 60.5536 158.168 60.6L158.16 60.6134L133.992 102.002L116.889 93.6736L146.566 48.4494L146.658 48.513C146.846 45.6948 148.073 42.942 150.325 40.8891C154.955 36.6699 162.128 37.0025 166.348 41.6321Z" fill="#FFB6B6"/>
<path d="M152.993 267.002C152.993 267.002 131.683 420.453 144.055 450.353L145.769 583.359H169.094L189.359 457.571C189.359 457.571 187.297 454.477 191.422 450.353C195.546 446.229 195.546 450.353 195.546 446.229C195.546 442.105 184.204 427.67 184.204 427.67L194.229 368.9L202.477 583.359L224.129 582.328C224.129 582.328 244.75 513.247 241.657 481.285C241.657 481.285 239.595 459.633 239.595 456.539C239.595 453.446 236.502 448.291 239.595 445.198C242.688 442.105 243.563 434.327 242.094 433.061C240.626 431.794 240.626 426.046 240.626 426.046L263.309 343.124V279.621L152.993 267.002Z" fill="#2F2E41"/>
<path d="M226.192 76.0813L195.26 79.1745L180.289 99.011L162.266 112.226V221.654L165.993 247.002C157.89 252.826 146.362 262.493 150.993 273.002C150.993 273.002 239.059 301.534 263.805 276.789L261.743 214.242L267.989 128.248C269.227 111.203 258.37 95.6156 241.952 90.8684L228.903 87.0953L226.192 76.0813Z" fill="#E6E6E6"/>
<path d="M257.789 334.426C263.956 333.327 268.063 327.437 266.964 321.271C266.461 318.445 264.944 316.061 262.863 314.403L262.865 314.387L266.993 257.002L248.994 248.097L246.26 316.966L246.371 316.972C244.803 319.321 244.098 322.251 244.633 325.251C245.732 331.418 251.622 335.526 257.789 334.426Z" fill="#FFB6B6"/>
<path d="M267.992 278.002L247.992 279.002L240.416 238.438L223.4 126.251C222.418 119.776 224.24 113.163 228.4 108.106C232.56 103.049 238.698 99.9854 245.239 99.7003C257.599 99.1509 268.152 108.394 269.261 120.716L277.527 212.641L267.992 278.002Z" fill="#E6E6E6"/>
<path d="M163.297 111.137L165.359 154.441L118.06 155.568C100.807 155.979 89.9832 137.081 99.0672 122.407L124.171 78.1639L140.49 92.619L128.241 122.479L163.297 111.137Z" fill="#E6E6E6"/>
<path d="M204.589 68.4729C220.54 68.4729 233.471 55.542 233.471 39.5908C233.471 23.6396 220.54 10.7086 204.589 10.7086C188.638 10.7086 175.707 23.6396 175.707 39.5908C175.707 55.542 188.638 68.4729 204.589 68.4729Z" fill="#FFB6B6"/>
<path d="M233.343 59.322C230.193 63.262 227.503 65.572 223.163 67.2219C223.093 66.6219 223.053 66.012 223.063 65.4019C222.463 66.2219 221.873 67.0419 221.263 67.8619C218.563 68.6919 215.263 69.3419 210.993 70.0019L208.893 63.5919C208.563 60.692 210.483 58.0219 212.623 56.0319C214.763 54.0519 217.263 52.3519 218.733 49.8319C220.203 47.3119 220.183 43.5519 217.733 41.9719C215.323 40.4019 212.013 41.6919 209.293 40.762C206.153 39.6919 204.683 35.8519 205.203 32.5719C205.723 29.2919 207.713 26.4619 209.643 23.7719C205.143 25.7319 198.333 25.9819 191.703 24.8119C191.943 22.7419 191.443 20.572 190.193 18.9019C190.073 20.8119 189.183 22.6519 187.783 23.9419C181.413 22.2319 175.713 19.1919 173.113 15.0919C174.263 14.7919 175.413 14.4819 176.563 14.1819C176.233 11.8219 175.903 9.47192 175.573 7.12194C176.973 7.81194 178.383 8.51195 179.793 9.20196C180.063 8.40191 180.473 7.70196 180.993 7.0819C182.183 6.70196 183.413 6.47191 184.663 6.38195C185.063 6.36193 185.473 6.34191 185.883 6.34191C186.483 6.34191 187.103 6.36193 187.703 6.43194C186.953 5.75195 186.193 5.0819 185.443 4.39196C185.353 4.31194 185.273 4.23193 185.183 4.15191C186.553 3.56194 188.033 3.11193 189.433 2.72192C195.553 1.02191 201.893 -0.68805 208.173 0.28192C212.184 0.90255 216.175 2.93132 218.779 5.95707C221.103 8.65819 224.384 10.2588 227.877 10.9657C229.555 11.3054 231.181 12.0563 232.533 13.1019C231.683 13.6519 230.783 14.132 229.843 14.512C231.623 14.9419 233.393 15.372 235.173 15.8119C236.833 18.0019 237.963 20.6119 238.823 23.2319C242.803 35.3019 241.283 49.4019 233.343 59.322Z" fill="#2F2E41"/>
<path d="M132.937 52.3017C132.939 52.3217 132.939 52.3404 132.937 52.3565C132.919 52.6254 132.636 52.6969 132.543 52.7205C132.049 52.8454 129.26 52.9848 128.823 52.2951C128.69 52.0838 127.982 52.1955 127.465 52.2769C127.102 52.3341 126.726 52.3933 126.396 52.3902C117.941 52.3141 111.478 52.9156 107.707 54.1291C104.851 55.0481 102.551 57.0345 101.23 59.7223C99.9133 62.4019 99.7321 65.4211 100.758 68.2339L103.661 76.2889C104.664 79.0713 106.697 81.2802 109.388 82.5085C112.096 83.7452 115.122 83.8336 117.909 82.7583C123.109 80.7509 130.443 75.3589 135.679 71.1891C135.893 71.0185 136.2 70.8295 136.496 70.6466C136.75 70.4905 137.109 70.2695 137.274 70.1286C137.23 70.0444 137.241 69.9649 137.246 69.9336C137.288 69.6886 137.52 69.6301 137.813 69.5566C137.995 69.5108 138.42 69.4037 138.484 69.2781C138.493 69.2596 138.481 69.2206 138.471 69.1995C138.367 68.9509 138.473 68.809 138.543 68.7475C138.753 68.564 138.978 68.6931 139.386 68.9281C139.698 69.1071 140.427 69.5267 140.634 69.3657C140.688 69.324 140.932 69.037 140.49 67.4662C140.364 67.019 140.423 66.6061 140.662 66.2727C141.237 65.4664 142.684 65.3757 142.745 65.3722L146.664 65.4466C153.899 65.586 160.698 62.4726 165.318 56.9044L165.373 56.8384L169.048 55.5964L165.368 44.7079L161.592 45.9842L161.491 45.9471C155.446 43.7147 148.646 45.4454 140.703 51.2384L138.448 52.8832L138.362 52.8897C136.806 53.0074 134.875 53.0598 134.518 52.6433C134.462 52.5773 134.427 52.4992 134.42 52.4169C134.174 52.3079 133.412 52.2672 132.937 52.3017Z" fill="#048ABF"/>
<path d="M170.978 42.4124C170.831 41.9782 170.358 41.7444 169.924 41.8911L164.622 43.683C164.188 43.8298 163.954 44.3023 164.101 44.7366L168.217 56.9156C168.364 57.3499 168.836 57.5837 169.27 57.4369L174.572 55.645C175.007 55.4982 175.24 55.0258 175.094 54.5915L170.978 42.4124Z" fill="#3F3D56"/>
<path d="M171.717 51.387C173.426 51.387 174.811 50.0022 174.811 48.2938C174.811 46.5855 173.426 45.2007 171.717 45.2007C170.009 45.2007 168.624 46.5855 168.624 48.2938C168.624 50.0022 170.009 51.387 171.717 51.387Z" fill="#3F3D56"/>
</g>
<defs>
<clipPath id="clip0_86_2536">
<rect width="539.67" height="633.657" fill="white"/>
</clipPath>
</defs>
</svg>
